<?xml version="1.0" encoding="UTF-8"?>
<!DOCTYPE svg PUBLIC "-//W3C//DTD SVG 1.1//EN" "http://www.w3.org/Graphics/SVG/1.1/DTD/svg11.dtd">
<svg xmlns="http://www.w3.org/2000/svg" version="1.1" width="330px" height="159px" style="shape-rendering:geometricPrecision; text-rendering:geometricPrecision; image-rendering:optimizeQuality; fill-rule:evenodd; clip-rule:evenodd" xmlns:xlink="http://www.w3.org/1999/xlink">
<g><path style="opacity:0.818" fill="#22182c" d="M 27.5,2.5 C 75.8333,1.16667 124.167,1.16667 172.5,2.5C 140.167,2.5 107.833,2.5 75.5,2.5C 68.5,2.5 61.5,2.5 54.5,2.5C 46.2769,54.1725 37.9435,105.839 29.5,157.5C 27.5853,157.216 25.9187,157.549 24.5,158.5C 16.5,158.5 8.5,158.5 0.5,158.5C 0.215521,156.585 0.548855,154.919 1.5,153.5C 1.5,153.833 1.5,154.167 1.5,154.5C 1.5,155.5 1.5,156.5 1.5,157.5C 8.5,157.5 15.5,157.5 22.5,157.5C 31.2744,105.853 39.9411,54.1867 48.5,2.5C 41.5,2.5 34.5,2.5 27.5,2.5 Z"/></g>
<g><path style="opacity:0.999" fill="#5b79e3" d="M 27.5,2.5 C 34.5,2.5 41.5,2.5 48.5,2.5C 39.9411,54.1867 31.2744,105.853 22.5,157.5C 15.5,157.5 8.5,157.5 1.5,157.5C 1.5,156.5 1.5,155.5 1.5,154.5C 3.17727,150.455 3.84394,146.122 3.5,141.5C 7.98002,111.618 12.98,81.9518 18.5,52.5C 19.7947,48.7329 20.4613,44.7329 20.5,40.5C 21.7394,30.3967 23.4061,20.3967 25.5,10.5C 26.7682,8.09483 27.4349,5.42816 27.5,2.5 Z"/></g>
<g><path style="opacity:1" fill="#5c7be8" d="M 75.5,2.5 C 66.8441,54.1024 58.5108,105.769 50.5,157.5C 50.5,157.833 50.5,158.167 50.5,158.5C 43.5,158.5 36.5,158.5 29.5,158.5C 29.5,158.167 29.5,157.833 29.5,157.5C 37.9435,105.839 46.2769,54.1725 54.5,2.5C 61.5,2.5 68.5,2.5 75.5,2.5 Z"/></g>
<g><path style="opacity:0.999" fill="#162559" d="M 329.5,1.5 C 329.5,5.16667 329.5,8.83333 329.5,12.5C 324.344,38.5703 320.011,64.9037 316.5,91.5C 313.656,103.233 311.656,115.233 310.5,127.5C 310.656,131.764 309.989,135.764 308.5,139.5C 306.946,143.567 306.28,147.9 306.5,152.5C 306.5,154.167 306.5,155.833 306.5,157.5C 305.209,157.263 304.209,157.596 303.5,158.5C 290.833,158.5 278.167,158.5 265.5,158.5C 264.833,157.167 264.167,157.167 263.5,158.5C 260.167,158.5 256.833,158.5 253.5,158.5C 253.167,157.167 252.833,157.167 252.5,158.5C 185.833,158.5 119.167,158.5 52.5,158.5C 52.1583,157.662 51.4916,157.328 50.5,157.5C 58.5108,105.769 66.8441,54.1024 75.5,2.5C 107.833,2.5 140.167,2.5 172.5,2.5C 224.68,1.7373 277.013,1.40396 329.5,1.5 Z"/></g>
<g><path style="opacity:0.263" fill="#34325e" d="M 27.5,2.5 C 27.4349,5.42816 26.7682,8.09483 25.5,10.5C 25.2938,7.50492 25.9605,4.83825 27.5,2.5 Z"/></g>
<g><path style="opacity:1" fill="#223162" d="M 81.5,12.5 C 85.5,12.5 89.5,12.5 93.5,12.5C 86.2633,57.9206 78.5966,103.254 70.5,148.5C 66.5,148.5 62.5,148.5 58.5,148.5C 65.7358,103.085 73.4025,57.7515 81.5,12.5 Z"/></g>
<g><path style="opacity:1" fill="#202d60" d="M 113.5,20.5 C 109.072,23.8911 104.406,27.0578 99.5,30C 98.6634,31.0113 98.33,32.1779 98.5,33.5C 97.3167,35.8457 97.65,38.1791 99.5,40.5C 103.546,41.7431 107.046,40.7431 110,37.5C 110.278,38.4158 110.778,39.0825 111.5,39.5C 110.277,46.7213 108.61,53.7213 106.5,60.5C 104.853,74.0644 102.853,87.7311 100.5,101.5C 100.52,102.726 100.853,103.726 101.5,104.5C 99.31,105.374 98.31,107.041 98.5,109.5C 97.1512,122.3 95.4845,135.3 93.5,148.5C 87.5,148.5 81.5,148.5 75.5,148.5C 82.5,103.167 89.5,57.8334 96.5,12.5C 102.5,12.5 108.5,12.5 114.5,12.5C 114.167,15.1667 113.833,17.8333 113.5,20.5 Z"/></g>
<g><path style="opacity:1" fill="#1c2a5c" d="M 154.5,18.5 C 142.847,16.9048 135.014,21.5715 131,32.5C 129.296,38.3901 128.129,44.3901 127.5,50.5C 127.422,55.6322 129.422,59.6322 133.5,62.5C 132.45,62.9046 132.45,63.5712 133.5,64.5C 145.595,69.6139 154.928,66.6139 161.5,55.5C 161.376,54.8933 161.043,54.56 160.5,54.5C 162.428,50.7146 163.762,46.7146 164.5,42.5C 165.782,52.1205 162.448,59.9538 154.5,66C 150.709,66.6184 147.209,67.7851 144,69.5C 142.103,82.3844 139.936,95.2177 137.5,108C 137.57,108.765 137.903,109.265 138.5,109.5C 134.87,113.631 131.037,117.631 127,121.5C 125.337,124.56 125.17,127.56 126.5,130.5C 132.75,132.459 139.416,133.126 146.5,132.5C 146.007,134.806 145.674,137.139 145.5,139.5C 148.518,139.665 151.518,139.498 154.5,139C 155.482,136.262 156.148,133.428 156.5,130.5C 158.857,130.663 161.19,130.497 163.5,130C 164.056,129.617 164.389,129.117 164.5,128.5C 165.376,128.369 166.043,128.702 166.5,129.5C 164.98,131.662 163.98,133.995 163.5,136.5C 162.022,136.238 160.689,136.571 159.5,137.5C 159.12,140.583 157.786,143.083 155.5,145C 151.833,145.667 148.167,145.667 144.5,145C 142.963,143.89 142.297,142.39 142.5,140.5C 142.5,138.833 142.5,137.167 142.5,135.5C 139.428,135.183 136.428,135.516 133.5,136.5C 132.402,140.423 131.735,144.423 131.5,148.5C 120.5,148.5 109.5,148.5 98.5,148.5C 99.9016,138.091 101.735,127.757 104,117.5C 105.529,116.271 106.696,114.771 107.5,113C 109.247,112.648 110.914,112.148 112.5,111.5C 110.504,120.818 108.504,130.151 106.5,139.5C 109.833,139.5 113.167,139.5 116.5,139.5C 119.883,124.584 122.883,109.584 125.5,94.5C 122.482,94.3354 119.482,94.502 116.5,95C 111.472,98.1774 106.472,101.344 101.5,104.5C 100.853,103.726 100.52,102.726 100.5,101.5C 102.853,87.7311 104.853,74.0644 106.5,60.5C 106.5,61.5 106.5,62.5 106.5,63.5C 109.833,63.5 113.167,63.5 116.5,63.5C 119.883,48.5836 122.883,33.5836 125.5,18.5C 123.833,18.5 122.167,18.5 120.5,18.5C 120.5,16.5 120.5,14.5 120.5,12.5C 131.5,12.5 142.5,12.5 153.5,12.5C 153.714,14.1439 153.38,15.6439 152.5,17C 153.416,17.2784 154.082,17.7784 154.5,18.5 Z"/></g>
<g><path style="opacity:1" fill="#1a295d" d="M 233.5,29.5 C 222.991,30.1739 217.157,35.8406 216,46.5C 215.502,49.8168 215.335,53.1501 215.5,56.5C 214.698,55.0484 214.198,53.3817 214,51.5C 213.667,53.5 213.333,55.5 213,57.5C 212.08,57.0698 211.247,56.7365 210.5,56.5C 213.047,51.0764 213.88,45.4097 213,39.5C 212.722,40.4158 212.222,41.0825 211.5,41.5C 211.986,33.4838 208.152,29.4838 200,29.5C 193.537,29.6174 188.87,32.6174 186,38.5C 183.655,45.4415 183.155,52.4415 184.5,59.5C 182.656,60.2039 182.156,61.5372 183,63.5C 187.966,68.0894 193.8,69.5894 200.5,68C 202.715,66.9562 205.048,66.2895 207.5,66C 208.64,64.0266 209.973,62.1933 211.5,60.5C 214.012,66.7633 218.678,70.0966 225.5,70.5C 223.175,83.4483 221.175,96.4483 219.5,109.5C 218.154,111.537 216.82,113.537 215.5,115.5C 214.5,115.5 213.5,115.5 212.5,115.5C 211.94,108.286 207.94,104.953 200.5,105.5C 189.57,106.596 184.737,112.596 186,123.5C 188.162,126.981 191.329,128.815 195.5,129C 191.786,131.858 189.12,135.358 187.5,139.5C 187.5,140.5 187.5,141.5 187.5,142.5C 189.527,142.662 191.527,142.495 193.5,142C 200.936,136.899 207.436,130.733 213,123.5C 214.372,124.91 215.205,126.577 215.5,128.5C 214.872,135.229 213.872,141.896 212.5,148.5C 188.346,148.379 164.346,148.045 140.5,147.5C 141.067,145.018 141.734,142.684 142.5,140.5C 142.297,142.39 142.963,143.89 144.5,145C 148.167,145.667 151.833,145.667 155.5,145C 157.786,143.083 159.12,140.583 159.5,137.5C 160.689,136.571 162.022,136.238 163.5,136.5C 163.98,133.995 164.98,131.662 166.5,129.5C 166.043,128.702 165.376,128.369 164.5,128.5C 164.993,126.194 165.326,123.861 165.5,121.5C 163.5,121.5 161.5,121.5 159.5,121.5C 160.942,112.514 162.275,103.514 163.5,94.5C 159.818,94.3347 156.152,94.5014 152.5,95C 147.63,99.7021 142.963,104.535 138.5,109.5C 137.903,109.265 137.57,108.765 137.5,108C 139.936,95.2177 142.103,82.3844 144,69.5C 147.209,67.7851 150.709,66.6184 154.5,66C 162.448,59.9538 165.782,52.1205 164.5,42.5C 168.014,34.4316 167.014,27.0983 161.5,20.5C 162.531,18.0392 163.198,15.3725 163.5,12.5C 187.509,12.1669 211.509,12.5003 235.5,13.5C 233.931,18.877 233.264,24.2103 233.5,29.5 Z"/></g>
<g><path style="opacity:1" fill="#5b7ae7" d="M 154.5,18.5 C 156.833,19.1667 159.167,19.8333 161.5,20.5C 167.014,27.0983 168.014,34.4316 164.5,42.5C 163.762,46.7146 162.428,50.7146 160.5,54.5C 157.663,59.597 153.33,62.7636 147.5,64C 142.682,64.7794 138.015,64.2794 133.5,62.5C 129.422,59.6322 127.422,55.6322 127.5,50.5C 128.129,44.3901 129.296,38.3901 131,32.5C 135.014,21.5715 142.847,16.9048 154.5,18.5 Z"/></g>
<g><path style="opacity:1" fill="#5b7be8" d="M 120.5,18.5 C 122.167,18.5 123.833,18.5 125.5,18.5C 122.883,33.5836 119.883,48.5836 116.5,63.5C 113.167,63.5 109.833,63.5 106.5,63.5C 106.5,62.5 106.5,61.5 106.5,60.5C 108.61,53.7213 110.277,46.7213 111.5,39.5C 111.979,36.9356 112.645,34.4356 113.5,32C 113.167,31.8333 112.833,31.6667 112.5,31.5C 109.405,33.9349 106.072,35.9349 102.5,37.5C 100.721,36.6064 99.3879,35.273 98.5,33.5C 98.33,32.1779 98.6634,31.0113 99.5,30C 104.406,27.0578 109.072,23.8911 113.5,20.5C 115.588,19.0605 117.921,18.3939 120.5,18.5 Z"/></g>
<g><path style="opacity:1" fill="#5c7be8" d="M 211.5,41.5 C 211.235,48.8002 208.901,55.3002 204.5,61C 199.43,63.4242 194.097,64.0909 188.5,63C 186.676,62.34 185.343,61.1733 184.5,59.5C 183.155,52.4415 183.655,45.4415 186,38.5C 188.87,32.6174 193.537,29.6174 200,29.5C 208.152,29.4838 211.986,33.4838 211.5,41.5 Z"/></g>
<g><path style="opacity:1" fill="#5c7be8" d="M 233.5,29.5 C 241.837,30.5127 245.17,35.1794 243.5,43.5C 242.82,50.049 240.487,55.8823 236.5,61C 231.43,63.4242 226.097,64.0909 220.5,63C 217.507,61.8415 215.84,59.6748 215.5,56.5C 215.335,53.1501 215.502,49.8168 216,46.5C 217.157,35.8406 222.991,30.1739 233.5,29.5 Z"/></g>
<g><path style="opacity:1" fill="#5b7be7" d="M 271.5,57.5 C 269.929,60.2313 267.595,62.0646 264.5,63C 260.5,63.6667 256.5,63.6667 252.5,63C 250.676,62.34 249.343,61.1733 248.5,59.5C 245.952,48.5245 248.619,39.0245 256.5,31C 271.02,26.5314 277.187,31.698 275,46.5C 274.124,50.2924 272.958,53.9591 271.5,57.5 Z"/></g>
<g><path style="opacity:1" fill="#1b2a5d" d="M 155.5,35.5 C 154.596,41.781 152.763,47.781 150,53.5C 146.89,55.5919 143.723,55.9252 140.5,54.5C 140.916,46.5382 142.916,38.8715 146.5,31.5C 150.594,30.3806 153.594,31.714 155.5,35.5 Z"/></g>
<g><path style="opacity:1" fill="#151f45" d="M 111.5,39.5 C 110.778,39.0825 110.278,38.4158 110,37.5C 107.046,40.7431 103.546,41.7431 99.5,40.5C 97.65,38.1791 97.3167,35.8457 98.5,33.5C 99.3879,35.273 100.721,36.6064 102.5,37.5C 106.072,35.9349 109.405,33.9349 112.5,31.5C 112.833,31.6667 113.167,31.8333 113.5,32C 112.645,34.4356 111.979,36.9356 111.5,39.5 Z"/></g>
<g><path style="opacity:1" fill="#15214a" d="M 155.5,35.5 C 153.594,31.714 150.594,30.3806 146.5,31.5C 142.916,38.8715 140.916,46.5382 140.5,54.5C 139.883,54.3893 139.383,54.056 139,53.5C 138.282,45.4728 139.616,37.8062 143,30.5C 146.431,26.1059 150.431,25.4392 155,28.5C 155.497,30.8098 155.663,33.1432 155.5,35.5 Z"/></g>
<g><path style="opacity:1" fill="#182655" d="M 197.5,35.5 C 201.525,34.5776 203.859,36.0776 204.5,40C 203.809,45.4061 202.309,50.5727 200,55.5C 195.241,58.926 192.074,57.926 190.5,52.5C 191.27,48.8189 192.103,45.1522 193,41.5C 193.804,38.8541 195.304,36.8541 197.5,35.5 Z"/></g>
<g><path style="opacity:1" fill="#142355" d="M 261.5,35.5 C 265.198,34.6798 267.531,36.0131 268.5,39.5C 267.795,45.8422 265.795,51.6756 262.5,57C 256.77,58.9355 254.436,56.9355 255.5,51C 255.167,44.7559 257.167,39.5892 261.5,35.5 Z"/></g>
<g><path style="opacity:0.015" fill="#271d37" d="M 20.5,40.5 C 20.4613,44.7329 19.7947,48.7329 18.5,52.5C 18.3442,48.2357 19.0109,44.2357 20.5,40.5 Z"/></g>
<g><path style="opacity:1" fill="#172557" d="M 229.5,35.5 C 233.525,34.5776 235.859,36.0776 236.5,40C 235.627,45.3728 234.127,50.5395 232,55.5C 229.847,57.4439 227.347,57.9439 224.5,57C 223.196,56.196 222.529,55.0293 222.5,53.5C 223.226,49.4776 224.059,45.4776 225,41.5C 225.804,38.8541 227.304,36.8541 229.5,35.5 Z"/></g>
<g><path style="opacity:1" fill="#5776df" d="M 170.5,55.5 C 172.924,55.1924 175.257,55.5258 177.5,56.5C 175.667,59.5 173.833,62.5 172,65.5C 170.556,67.1554 168.722,67.822 166.5,67.5C 166.848,63.1214 168.182,59.1214 170.5,55.5 Z"/></g>
<g><path style="opacity:0.015" fill="#22182c" d="M 329.5,12.5 C 329.5,14.8333 329.5,17.1667 329.5,19.5C 328.167,20.5 328.167,21.5 329.5,22.5C 329.5,24.1667 329.5,25.8333 329.5,27.5C 328.59,29.0188 327.757,30.6854 327,32.5C 323.903,52.3769 320.403,72.0436 316.5,91.5C 320.011,64.9037 324.344,38.5703 329.5,12.5 Z"/></g>
<g><path style="opacity:1" fill="#0a1432" d="M 160.5,54.5 C 161.043,54.56 161.376,54.8933 161.5,55.5C 154.928,66.6139 145.595,69.6139 133.5,64.5C 132.45,63.5712 132.45,62.9046 133.5,62.5C 138.015,64.2794 142.682,64.7794 147.5,64C 153.33,62.7636 157.663,59.597 160.5,54.5 Z"/></g>
<g><path style="opacity:1" fill="#0b1638" d="M 271.5,57.5 C 272.356,61.8813 270.356,64.7146 265.5,66C 260.833,66.6667 256.167,66.6667 251.5,66C 248.847,64.2247 247.847,62.058 248.5,59.5C 249.343,61.1733 250.676,62.34 252.5,63C 256.5,63.6667 260.5,63.6667 264.5,63C 267.595,62.0646 269.929,60.2313 271.5,57.5 Z"/></g>
<g><path style="opacity:1" fill="#121e48" d="M 215.5,56.5 C 215.84,59.6748 217.507,61.8415 220.5,63C 226.097,64.0909 231.43,63.4242 236.5,61C 240.487,55.8823 242.82,50.049 243.5,43.5C 244.676,52.2788 242.343,60.1121 236.5,67C 233.289,68.1532 229.956,68.8198 226.5,69C 225.944,69.3826 225.611,69.8826 225.5,70.5C 218.678,70.0966 214.012,66.7633 211.5,60.5C 209.973,62.1933 208.64,64.0266 207.5,66C 205.048,66.2895 202.715,66.9562 200.5,68C 193.8,69.5894 187.966,68.0894 183,63.5C 182.156,61.5372 182.656,60.2039 184.5,59.5C 185.343,61.1733 186.676,62.34 188.5,63C 194.097,64.0909 199.43,63.4242 204.5,61C 208.901,55.3002 211.235,48.8002 211.5,41.5C 212.222,41.0825 212.722,40.4158 213,39.5C 213.88,45.4097 213.047,51.0764 210.5,56.5C 211.247,56.7365 212.08,57.0698 213,57.5C 213.333,55.5 213.667,53.5 214,51.5C 214.198,53.3817 214.698,55.0484 215.5,56.5 Z"/></g>
<g><path style="opacity:1" fill="#5b7be8" d="M 112.5,111.5 C 112.906,109.891 112.906,108.557 112.5,107.5C 109.405,109.935 106.072,111.935 102.5,113.5C 100.721,112.606 99.3879,111.273 98.5,109.5C 98.31,107.041 99.31,105.374 101.5,104.5C 106.472,101.344 111.472,98.1774 116.5,95C 119.482,94.502 122.482,94.3354 125.5,94.5C 122.883,109.584 119.883,124.584 116.5,139.5C 113.167,139.5 109.833,139.5 106.5,139.5C 108.504,130.151 110.504,120.818 112.5,111.5 Z"/></g>
<g><path style="opacity:1" fill="#5a7ae6" d="M 164.5,128.5 C 164.389,129.117 164.056,129.617 163.5,130C 161.19,130.497 158.857,130.663 156.5,130.5C 156.148,133.428 155.482,136.262 154.5,139C 151.518,139.498 148.518,139.665 145.5,139.5C 145.674,137.139 146.007,134.806 146.5,132.5C 140.25,130.541 133.584,129.874 126.5,130.5C 125.17,127.56 125.337,124.56 127,121.5C 131.037,117.631 134.87,113.631 138.5,109.5C 142.963,104.535 147.63,99.7021 152.5,95C 156.152,94.5014 159.818,94.3347 163.5,94.5C 162.275,103.514 160.942,112.514 159.5,121.5C 161.5,121.5 163.5,121.5 165.5,121.5C 165.326,123.861 164.993,126.194 164.5,128.5 Z"/></g>
<g><path style="opacity:1" fill="#5b7ae6" d="M 212.5,115.5 C 211.97,117.924 211.136,120.257 210,122.5C 205.2,128.302 200.033,133.802 194.5,139C 192.19,139.497 189.857,139.663 187.5,139.5C 189.12,135.358 191.786,131.858 195.5,129C 191.329,128.815 188.162,126.981 186,123.5C 184.737,112.596 189.57,106.596 200.5,105.5C 207.94,104.953 211.94,108.286 212.5,115.5 Z"/></g>
<g><path style="opacity:1" fill="#5b7ae6" d="M 242.5,116.5 C 241.453,120.261 239.619,123.594 237,126.5C 232.833,130.667 228.667,134.833 224.5,139C 222.527,139.495 220.527,139.662 218.5,139.5C 217.957,139.44 217.624,139.107 217.5,138.5C 219.252,136.754 220.585,134.754 221.5,132.5C 222.962,131.542 224.295,130.376 225.5,129C 217.667,127.835 214.334,123.335 215.5,115.5C 216.82,113.537 218.154,111.537 219.5,109.5C 224.58,105.852 230.246,104.685 236.5,106C 241.245,107.916 243.245,111.416 242.5,116.5 Z"/></g>
<g><path style="opacity:1" fill="#5a7ae6" d="M 272.5,117.5 C 271.657,120.516 270.157,123.183 268,125.5C 263.651,129.682 259.485,134.015 255.5,138.5C 253.253,139.374 250.92,139.708 248.5,139.5C 247.475,139.103 247.308,138.437 248,137.5C 250.04,135.63 251.873,133.63 253.5,131.5C 253.953,130.542 254.619,129.708 255.5,129C 247.783,127.78 244.45,123.28 245.5,115.5C 251.724,105.152 260.224,102.819 271,108.5C 272.289,111.351 272.789,114.351 272.5,117.5 Z"/></g>
<g><path style="opacity:0.038" fill="#20182d" d="M 316.5,91.5 C 315.344,103.768 313.344,115.768 310.5,127.5C 311.656,115.233 313.656,103.233 316.5,91.5 Z"/></g>
<g><path style="opacity:1" fill="#091435" d="M 234.5,116.5 C 229.077,113.204 225.411,114.537 223.5,120.5C 223.162,114.017 226.162,111.184 232.5,112C 234.037,113.11 234.703,114.61 234.5,116.5 Z"/></g>
<g><path style="opacity:1" fill="#13204b" d="M 150.5,107.5 C 151.124,107.917 151.457,108.584 151.5,109.5C 150.444,113.444 149.777,117.444 149.5,121.5C 145.818,121.665 142.152,121.499 138.5,121C 142.337,116.331 146.337,111.831 150.5,107.5 Z"/></g>
<g><path style="opacity:1" fill="#131f49" d="M 197.5,111.5 C 204.641,111.62 206.308,114.787 202.5,121C 195.063,124.591 192.229,122.424 194,114.5C 195.145,113.364 196.312,112.364 197.5,111.5 Z"/></g>
<g><path style="opacity:1" fill="#152355" d="M 234.5,116.5 C 233.203,121.655 229.87,123.488 224.5,122C 223.944,121.617 223.611,121.117 223.5,120.5C 225.411,114.537 229.077,113.204 234.5,116.5 Z"/></g>
<g><path style="opacity:1" fill="#0f1c46" d="M 257.5,111.5 C 264.628,111.706 266.294,114.873 262.5,121C 257.987,123.72 254.987,122.72 253.5,118C 254.205,115.458 255.539,113.292 257.5,111.5 Z"/></g>
<g><path style="opacity:1" fill="#111c44" d="M 212.5,115.5 C 213.5,115.5 214.5,115.5 215.5,115.5C 214.334,123.335 217.667,127.835 225.5,129C 224.295,130.376 222.962,131.542 221.5,132.5C 218.763,132.141 216.763,130.807 215.5,128.5C 215.205,126.577 214.372,124.91 213,123.5C 207.436,130.733 200.936,136.899 193.5,142C 191.527,142.495 189.527,142.662 187.5,142.5C 187.5,141.5 187.5,140.5 187.5,139.5C 189.857,139.663 192.19,139.497 194.5,139C 200.033,133.802 205.2,128.302 210,122.5C 211.136,120.257 211.97,117.924 212.5,115.5 Z"/></g>
<g><path style="opacity:1" fill="#0e1941" d="M 245.5,115.5 C 244.45,123.28 247.783,127.78 255.5,129C 254.619,129.708 253.953,130.542 253.5,131.5C 248.916,131.42 245.416,129.42 243,125.5C 238.506,130.275 233.672,134.775 228.5,139C 225.664,141.584 222.331,142.751 218.5,142.5C 218.5,141.5 218.5,140.5 218.5,139.5C 220.527,139.662 222.527,139.495 224.5,139C 228.667,134.833 232.833,130.667 237,126.5C 239.619,123.594 241.453,120.261 242.5,116.5C 243.222,116.082 243.722,115.416 244,114.5C 244.383,115.056 244.883,115.389 245.5,115.5 Z"/></g>
<g><path style="opacity:1" fill="#09102d" d="M 126.5,130.5 C 133.584,129.874 140.25,130.541 146.5,132.5C 139.416,133.126 132.75,132.459 126.5,130.5 Z"/></g>
<g><path style="opacity:1" fill="#5776df" d="M 170.5,131.5 C 172.924,131.192 175.257,131.526 177.5,132.5C 175.867,135.96 174.034,139.294 172,142.5C 170.301,143.406 168.467,143.739 166.5,143.5C 167.633,139.433 168.967,135.433 170.5,131.5 Z"/></g>
<g><path style="opacity:1" fill="#0f1b45" d="M 248.5,139.5 C 250.92,139.708 253.253,139.374 255.5,138.5C 259.485,134.015 263.651,129.682 268,125.5C 270.157,123.183 271.657,120.516 272.5,117.5C 273.29,116.391 273.79,115.058 274,113.5C 274.791,117.926 274.457,122.259 273,126.5C 267.14,131.027 261.973,136.194 257.5,142C 254.518,142.498 251.518,142.665 248.5,142.5C 248.5,141.5 248.5,140.5 248.5,139.5 Z"/></g>
<g><path style="opacity:0.018" fill="#1f162b" d="M 308.5,139.5 C 308.72,144.1 308.054,148.433 306.5,152.5C 306.28,147.9 306.946,143.567 308.5,139.5 Z"/></g>
<g><path style="opacity:0.38" fill="#32305a" d="M 3.5,141.5 C 3.84394,146.122 3.17727,150.455 1.5,154.5C 1.5,154.167 1.5,153.833 1.5,153.5C 1.85091,149.316 2.51758,145.316 3.5,141.5 Z"/></g>
</svg>
