<?xml version="1.0" encoding="UTF-8"?>
<!DOCTYPE svg PUBLIC "-//W3C//DTD SVG 1.1//EN" "http://www.w3.org/Graphics/SVG/1.1/DTD/svg11.dtd">
<svg xmlns="http://www.w3.org/2000/svg" version="1.1" width="330px" height="159px" style="shape-rendering:geometricPrecision; text-rendering:geometricPrecision; image-rendering:optimizeQuality; fill-rule:evenodd; clip-rule:evenodd" xmlns:xlink="http://www.w3.org/1999/xlink">
<g><path style="opacity:0.867" fill="#24182b" d="M 30.5,2.5 C 77.8333,1.16667 125.167,1.16667 172.5,2.5C 139.5,2.5 106.5,2.5 73.5,2.5C 66.5,2.5 59.5,2.5 52.5,2.5C 44.2769,54.1725 35.9435,105.839 27.5,157.5C 34.5,157.5 41.5,157.5 48.5,157.5C 56.8333,157.5 65.1667,157.5 73.5,157.5C 73.5,157.833 73.5,158.167 73.5,158.5C 57.8333,158.5 42.1667,158.5 26.5,158.5C 25.3358,155.158 23.6692,155.158 21.5,158.5C 14.1667,158.5 6.83333,158.5 -0.5,158.5C -0.5,158.167 -0.5,157.833 -0.5,157.5C 6.5,157.5 13.5,157.5 20.5,157.5C 29.2744,105.853 37.9411,54.1867 46.5,2.5C 41.1667,2.5 35.8333,2.5 30.5,2.5 Z"/></g>
<g><path style="opacity:0.998" fill="#cf68f8" d="M 30.5,2.5 C 35.8333,2.5 41.1667,2.5 46.5,2.5C 37.9411,54.1867 29.2744,105.853 20.5,157.5C 13.5,157.5 6.5,157.5 -0.5,157.5C -0.5,153.833 -0.5,150.167 -0.5,146.5C -0.166667,146.5 0.166667,146.5 0.5,146.5C 1.46138,144.735 1.79472,142.735 1.5,140.5C 2.6874,137.054 3.35407,133.387 3.5,129.5C 3.5,129.167 3.5,128.833 3.5,128.5C 4.46138,126.735 4.79472,124.735 4.5,122.5C 5.01316,116.383 6.01316,110.383 7.5,104.5C 8.46138,102.735 8.79472,100.735 8.5,98.5C 9.79468,94.7329 10.4613,90.7329 10.5,86.5C 14.6771,67.4417 18.0105,48.1083 20.5,28.5C 21.8333,19.8333 23.1667,11.1667 24.5,2.5C 26.5,2.5 28.5,2.5 30.5,2.5 Z"/></g>
<g><path style="opacity:1" fill="#d269fc" d="M 73.5,2.5 C 64.8445,54.0999 56.5112,105.767 48.5,157.5C 41.5,157.5 34.5,157.5 27.5,157.5C 35.9435,105.839 44.2769,54.1725 52.5,2.5C 59.5,2.5 66.5,2.5 73.5,2.5 Z"/></g>
<g><path style="opacity:0.999" fill="#471b57" d="M 329.5,2.5 C 329.5,3.83333 329.5,5.16667 329.5,6.5C 320.71,55.9713 312.21,105.638 304,155.5C 303.015,156.814 301.848,157.814 300.5,158.5C 299.5,158.5 298.5,158.5 297.5,158.5C 233.167,157.167 168.833,157.167 104.5,158.5C 96.5,158.5 88.5,158.5 80.5,158.5C 78.3926,157.532 76.0593,157.198 73.5,157.5C 65.1667,157.5 56.8333,157.5 48.5,157.5C 56.5112,105.767 64.8445,54.0999 73.5,2.5C 106.5,2.5 139.5,2.5 172.5,2.5C 224.474,1.41273 276.807,1.41273 329.5,2.5 Z"/></g>
<g><path style="opacity:1" fill="#522760" d="M 79.5,12.5 C 83.5,12.5 87.5,12.5 91.5,12.5C 84.2182,57.5243 76.7182,102.524 69,147.5C 64.9215,148.629 60.7548,148.796 56.5,148C 64.4319,102.909 72.0986,57.7424 79.5,12.5 Z"/></g>
<g><path style="opacity:1" fill="#4c225b" d="M 111.5,20.5 C 107.072,23.8911 102.406,27.0578 97.5,30C 95.8381,33.4973 96.8381,35.9973 100.5,37.5C 104.133,35.3089 107.8,33.4756 111.5,32C 108.688,42.3661 106.354,52.8661 104.5,63.5C 107.833,63.5 111.167,63.5 114.5,63.5C 117.883,48.5836 120.883,33.5836 123.5,18.5C 121.833,18.5 120.167,18.5 118.5,18.5C 118.5,16.5 118.5,14.5 118.5,12.5C 129.5,12.5 140.5,12.5 151.5,12.5C 151.167,14.5 150.833,16.5 150.5,18.5C 145.238,18.1953 140.072,18.5286 135,19.5C 132.191,27.4271 129.691,35.4271 127.5,43.5C 130.833,43.5 134.167,43.5 137.5,43.5C 134.713,44.4767 131.713,44.81 128.5,44.5C 128.5,45.5 128.5,46.5 128.5,47.5C 133.039,47.6782 137.539,47.3449 142,46.5C 144.597,46.9404 147.097,47.6071 149.5,48.5C 147.452,54.8581 143.119,57.0248 136.5,55C 135.13,53.5587 134.13,51.892 133.5,50C 130.5,49.3333 127.5,49.3333 124.5,50C 123.944,50.3826 123.611,50.8826 123.5,51.5C 120.9,55.022 120.9,58.6887 123.5,62.5C 128.265,67.864 134.265,70.1974 141.5,69.5C 140.707,78.5899 139.374,87.5899 137.5,96.5C 130.313,101.209 127.146,107.876 128,116.5C 130.854,122.516 135.687,125.35 142.5,125C 138.667,128.833 134.833,132.667 131,136.5C 130.517,137.448 130.351,138.448 130.5,139.5C 129.105,137.946 128.439,138.279 128.5,140.5C 129.269,143.115 129.603,145.781 129.5,148.5C 118.5,148.5 107.5,148.5 96.5,148.5C 98.0094,138.444 99.8428,128.444 102,118.5C 106.214,113.983 108.38,114.65 108.5,120.5C 107.009,126.799 105.675,133.132 104.5,139.5C 107.833,139.5 111.167,139.5 114.5,139.5C 117.883,124.584 120.883,109.584 123.5,94.5C 119.692,94.1632 116.026,94.6632 112.5,96C 107.672,99.5814 102.672,102.915 97.5,106C 96.6634,107.011 96.33,108.178 96.5,109.5C 95.1526,122.291 93.4859,135.291 91.5,148.5C 85.5,148.5 79.5,148.5 73.5,148.5C 80.7168,103.199 87.7168,57.8658 94.5,12.5C 100.5,12.5 106.5,12.5 112.5,12.5C 112.167,15.1667 111.833,17.8333 111.5,20.5 Z"/></g>
<g><path style="opacity:1" fill="#4b1f5a" d="M 230.5,29.5 C 219.889,28.9016 213.722,33.9016 212,44.5C 211.498,47.5131 210.998,50.5131 210.5,53.5C 209.674,49.0181 209.174,44.3514 209,39.5C 208.722,40.4158 208.222,41.0825 207.5,41.5C 207.859,33.1927 203.859,29.1927 195.5,29.5C 186.416,30.2576 181.25,35.2576 180,44.5C 178.629,49.2043 178.462,53.871 179.5,58.5C 177.537,62.5677 178.537,65.7343 182.5,68C 191.015,69.9476 198.515,68.1142 205,62.5C 207.132,55.9096 208.298,55.5763 208.5,61.5C 209.5,61.5 210.5,61.5 211.5,61.5C 211.622,64.2921 212.956,66.2921 215.5,67.5C 215.611,68.1174 215.944,68.6174 216.5,69C 218.81,69.4966 221.143,69.6633 223.5,69.5C 221.5,82.1667 219.5,94.8333 217.5,107.5C 212.537,110.759 210.203,115.426 210.5,121.5C 209.71,120.391 209.21,119.058 209,117.5C 208.925,119.935 208.092,120.602 206.5,119.5C 208.922,110.241 205.255,105.574 195.5,105.5C 184.57,106.596 179.737,112.596 181,123.5C 183.162,126.981 186.329,128.815 190.5,129C 186.786,131.858 184.12,135.358 182.5,139.5C 181.566,140.568 181.232,141.901 181.5,143.5C 184.518,143.665 187.518,143.498 190.5,143C 195.996,136.505 201.829,130.338 208,124.5C 209.292,126.249 210.458,128.082 211.5,130C 213.518,130.505 215.518,131.005 217.5,131.5C 215.807,134.184 214.14,136.851 212.5,139.5C 212.167,139.5 211.833,139.5 211.5,139.5C 210.523,142.287 210.19,145.287 210.5,148.5C 195.921,148.824 181.421,148.49 167,147.5C 166.161,148.624 164.994,149.291 163.5,149.5C 155.164,148.924 146.831,148.257 138.5,147.5C 139.127,146.583 139.461,145.583 139.5,144.5C 145.794,139.707 151.628,134.374 157,128.5C 157.333,127.167 157.667,125.833 158,124.5C 161.169,122.173 163.336,119.173 164.5,115.5C 164.253,114.287 163.586,113.62 162.5,113.5C 166.872,100.59 162.205,94.2562 148.5,94.5C 144.645,94.3661 140.978,95.0328 137.5,96.5C 139.374,87.5899 140.707,78.5899 141.5,69.5C 134.265,70.1974 128.265,67.864 123.5,62.5C 120.9,58.6887 120.9,55.022 123.5,51.5C 123.166,54.188 123.832,56.5214 125.5,58.5C 124.535,59.7211 124.702,61.0544 126,62.5C 128.911,66.1955 132.744,67.8622 137.5,67.5C 143.828,67.6047 149.495,65.7713 154.5,62C 155.774,61.0228 155.774,60.1894 154.5,59.5C 160.883,52.6827 161.717,45.3494 157,37.5C 152.908,34.874 148.408,33.874 143.5,34.5C 149.32,33.0642 155.32,31.8975 161.5,31C 164.477,28.0919 164.81,25.2585 162.5,22.5C 164.002,20.1707 163.336,18.8373 160.5,18.5C 160.833,16.5 161.167,14.5 161.5,12.5C 185.509,12.1669 209.509,12.5003 233.5,13.5C 232.285,18.7919 231.285,24.1253 230.5,29.5 Z"/></g>
<g><path style="opacity:1" fill="#d068f9" d="M 118.5,18.5 C 120.167,18.5 121.833,18.5 123.5,18.5C 120.883,33.5836 117.883,48.5836 114.5,63.5C 111.167,63.5 107.833,63.5 104.5,63.5C 106.354,52.8661 108.688,42.3661 111.5,32C 107.8,33.4756 104.133,35.3089 100.5,37.5C 96.8381,35.9973 95.8381,33.4973 97.5,30C 102.406,27.0578 107.072,23.8911 111.5,20.5C 113.588,19.0605 115.921,18.3939 118.5,18.5 Z"/></g>
<g><path style="opacity:1" fill="#cf68f8" d="M 150.5,18.5 C 153.833,18.5 157.167,18.5 160.5,18.5C 163.336,18.8373 164.002,20.1707 162.5,22.5C 162.67,23.8221 162.337,24.9887 161.5,26C 154.809,26.1691 148.142,26.6691 141.5,27.5C 139.841,30.0951 139.507,32.7618 140.5,35.5C 141.417,34.8728 142.417,34.5394 143.5,34.5C 148.408,33.874 152.908,34.874 157,37.5C 161.717,45.3494 160.883,52.6827 154.5,59.5C 147.435,64.3425 139.768,65.5092 131.5,63C 128.894,62.2082 126.894,60.7082 125.5,58.5C 123.832,56.5214 123.166,54.188 123.5,51.5C 123.611,50.8826 123.944,50.3826 124.5,50C 127.5,49.3333 130.5,49.3333 133.5,50C 134.13,51.892 135.13,53.5587 136.5,55C 143.119,57.0248 147.452,54.8581 149.5,48.5C 149.896,45.9556 149.229,43.7889 147.5,42C 143.851,41.037 140.518,41.537 137.5,43.5C 134.167,43.5 130.833,43.5 127.5,43.5C 129.691,35.4271 132.191,27.4271 135,19.5C 140.072,18.5286 145.238,18.1953 150.5,18.5 Z"/></g>
<g><path style="opacity:1" fill="#3e194c" d="M 162.5,22.5 C 164.81,25.2585 164.477,28.0919 161.5,31C 155.32,31.8975 149.32,33.0642 143.5,34.5C 142.417,34.5394 141.417,34.8728 140.5,35.5C 139.507,32.7618 139.841,30.0951 141.5,27.5C 148.142,26.6691 154.809,26.1691 161.5,26C 162.337,24.9887 162.67,23.8221 162.5,22.5 Z"/></g>
<g><path style="opacity:1" fill="#cf68f8" d="M 207.5,41.5 C 206.905,47.8785 205.072,53.8785 202,59.5C 196.757,63.2266 190.924,64.3933 184.5,63C 182.34,62.0041 180.673,60.5041 179.5,58.5C 178.462,53.871 178.629,49.2043 180,44.5C 181.25,35.2576 186.416,30.2576 195.5,29.5C 203.859,29.1927 207.859,33.1927 207.5,41.5 Z"/></g>
<g><path style="opacity:1" fill="#cf68f8" d="M 230.5,29.5 C 234.136,29.7707 236.97,31.4374 239,34.5C 239.629,38.8706 239.463,43.204 238.5,47.5C 236.2,61.6173 228.2,66.4506 214.5,62C 211.679,59.8587 210.346,57.0254 210.5,53.5C 210.998,50.5131 211.498,47.5131 212,44.5C 213.722,33.9016 219.889,28.9016 230.5,29.5 Z"/></g>
<g><path style="opacity:1" fill="#cf68f8" d="M 270.5,47.5 C 268.623,60.2801 261.29,65.4468 248.5,63C 246.34,62.0041 244.673,60.5041 243.5,58.5C 242.575,49.6291 244.409,41.2958 249,33.5C 256.643,27.9326 263.976,28.266 271,34.5C 271.629,38.8706 271.463,43.204 270.5,47.5 Z"/></g>
<g><path style="opacity:0.021" fill="#2d1c36" d="M 20.5,28.5 C 18.0105,48.1083 14.6771,67.4417 10.5,86.5C 12.8625,66.8946 16.1959,47.5613 20.5,28.5 Z"/></g>
<g><path style="opacity:1" fill="#431952" d="M 256.5,35.5 C 261.192,34.4991 263.525,36.3325 263.5,41C 263.039,46.011 261.872,50.8443 260,55.5C 254.837,59.0209 251.67,57.8542 250.5,52C 250.91,45.8182 252.91,40.3182 256.5,35.5 Z"/></g>
<g><path style="opacity:1" fill="#34153f" d="M 149.5,48.5 C 147.097,47.6071 144.597,46.9404 142,46.5C 137.539,47.3449 133.039,47.6782 128.5,47.5C 128.5,46.5 128.5,45.5 128.5,44.5C 131.713,44.81 134.713,44.4767 137.5,43.5C 140.518,41.537 143.851,41.037 147.5,42C 149.229,43.7889 149.896,45.9556 149.5,48.5 Z"/></g>
<g><path style="opacity:1" fill="#441c51" d="M 193.5,35.5 C 197.821,34.8244 199.821,36.6577 199.5,41C 199.302,46.3352 197.968,51.3352 195.5,56C 192.97,57.4217 190.303,57.755 187.5,57C 186.717,51.4869 187.217,45.9869 189,40.5C 190.025,38.313 191.525,36.6464 193.5,35.5 Z"/></g>
<g><path style="opacity:1" fill="#441b51" d="M 224.5,35.5 C 229.192,34.4991 231.525,36.3325 231.5,41C 231.222,46.0589 230.055,50.8922 228,55.5C 223.44,58.8612 220.273,58.0279 218.5,53C 218.752,46.4556 220.752,40.6223 224.5,35.5 Z"/></g>
<g><path style="opacity:1" fill="#351342" d="M 270.5,47.5 C 272.373,56.272 269.373,63.1053 261.5,68C 256.411,68.8257 251.411,68.4924 246.5,67C 243.448,64.5909 242.448,61.7575 243.5,58.5C 244.673,60.5041 246.34,62.0041 248.5,63C 261.29,65.4468 268.623,60.2801 270.5,47.5 Z"/></g>
<g><path style="opacity:1" fill="#c763ee" d="M 165.5,55.5 C 167.833,55.5 170.167,55.5 172.5,55.5C 171.226,59.3811 169.393,63.0478 167,66.5C 165.301,67.4061 163.467,67.7394 161.5,67.5C 162.836,63.4963 164.169,59.4963 165.5,55.5 Z"/></g>
<g><path style="opacity:1" fill="#2a1034" d="M 125.5,58.5 C 126.894,60.7082 128.894,62.2082 131.5,63C 139.768,65.5092 147.435,64.3425 154.5,59.5C 155.774,60.1894 155.774,61.0228 154.5,62C 149.495,65.7713 143.828,67.6047 137.5,67.5C 132.744,67.8622 128.911,66.1955 126,62.5C 124.702,61.0544 124.535,59.7211 125.5,58.5 Z"/></g>
<g><path style="opacity:1" fill="#371543" d="M 210.5,53.5 C 210.346,57.0254 211.679,59.8587 214.5,62C 228.2,66.4506 236.2,61.6173 238.5,47.5C 239.779,63.8692 232.112,70.5359 215.5,67.5C 212.956,66.2921 211.622,64.2921 211.5,61.5C 210.5,61.5 209.5,61.5 208.5,61.5C 208.298,55.5763 207.132,55.9096 205,62.5C 198.515,68.1142 191.015,69.9476 182.5,68C 178.537,65.7343 177.537,62.5677 179.5,58.5C 180.673,60.5041 182.34,62.0041 184.5,63C 190.924,64.3933 196.757,63.2266 202,59.5C 205.072,53.8785 206.905,47.8785 207.5,41.5C 208.222,41.0825 208.722,40.4158 209,39.5C 209.174,44.3514 209.674,49.0181 210.5,53.5 Z"/></g>
<g><path style="opacity:0.027" fill="#221729" d="M 10.5,86.5 C 10.4613,90.7329 9.79468,94.7329 8.5,98.5C 8.70363,95.4547 8.70363,92.6213 8.5,90C 9.0848,88.6976 9.75147,87.531 10.5,86.5 Z"/></g>
<g><path style="opacity:1" fill="#d068f9" d="M 162.5,113.5 C 155.75,122.423 148.417,130.923 140.5,139C 137.183,139.498 133.85,139.665 130.5,139.5C 130.351,138.448 130.517,137.448 131,136.5C 134.833,132.667 138.667,128.833 142.5,125C 135.687,125.35 130.854,122.516 128,116.5C 127.146,107.876 130.313,101.209 137.5,96.5C 140.978,95.0328 144.645,94.3661 148.5,94.5C 162.205,94.2562 166.872,100.59 162.5,113.5 Z"/></g>
<g><path style="opacity:1" fill="#d068f9" d="M 108.5,120.5 C 109.198,116.245 110.198,112.078 111.5,108C 107.8,109.476 104.133,111.309 100.5,113.5C 98.7212,112.606 97.3879,111.273 96.5,109.5C 96.33,108.178 96.6634,107.011 97.5,106C 102.672,102.915 107.672,99.5814 112.5,96C 116.026,94.6632 119.692,94.1632 123.5,94.5C 120.883,109.584 117.883,124.584 114.5,139.5C 111.167,139.5 107.833,139.5 104.5,139.5C 105.675,133.132 107.009,126.799 108.5,120.5 Z"/></g>
<g><path style="opacity:0.027" fill="#221729" d="M 8.5,98.5 C 8.79472,100.735 8.46138,102.735 7.5,104.5C 6.95691,104.44 6.62358,104.107 6.5,103.5C 7.02756,101.664 7.69423,99.9972 8.5,98.5 Z"/></g>
<g><path style="opacity:1" fill="#cf67f8" d="M 206.5,119.5 C 201.788,126.72 196.122,133.22 189.5,139C 187.19,139.497 184.857,139.663 182.5,139.5C 184.12,135.358 186.786,131.858 190.5,129C 186.329,128.815 183.162,126.981 181,123.5C 179.737,112.596 184.57,106.596 195.5,105.5C 205.255,105.574 208.922,110.241 206.5,119.5 Z"/></g>
<g><path style="opacity:1" fill="#cf67f8" d="M 237.5,116.5 C 236.453,120.261 234.619,123.594 232,126.5C 227.833,130.667 223.667,134.833 219.5,139C 217.19,139.497 214.857,139.663 212.5,139.5C 214.14,136.851 215.807,134.184 217.5,131.5C 218.627,130.878 219.627,130.045 220.5,129C 215.417,128.644 212.083,126.144 210.5,121.5C 210.203,115.426 212.537,110.759 217.5,107.5C 224.833,104.01 231.333,105.01 237,110.5C 237.495,112.473 237.662,114.473 237.5,116.5 Z"/></g>
<g><path style="opacity:1" fill="#cf67f8" d="M 267.5,117.5 C 266.657,120.516 265.157,123.183 263,125.5C 258.5,130 254,134.5 249.5,139C 247.19,139.497 244.857,139.663 242.5,139.5C 244.091,136.569 246.091,133.902 248.5,131.5C 248.953,130.542 249.619,129.708 250.5,129C 242.783,127.78 239.45,123.28 240.5,115.5C 246.724,105.152 255.224,102.819 266,108.5C 267.289,111.351 267.789,114.351 267.5,117.5 Z"/></g>
<g><path style="opacity:1" fill="#40194e" d="M 143.5,102.5 C 153.765,102.195 156.098,106.362 150.5,115C 141.871,119.696 138.038,117.196 139,107.5C 140.707,105.963 142.207,104.296 143.5,102.5 Z"/></g>
<g><path style="opacity:1" fill="#411b4f" d="M 192.5,111.5 C 199.641,111.62 201.308,114.787 197.5,121C 190.063,124.591 187.229,122.424 189,114.5C 190.145,113.364 191.312,112.364 192.5,111.5 Z"/></g>
<g><path style="opacity:1" fill="#3d174b" d="M 222.5,111.5 C 229.628,111.706 231.294,114.873 227.5,121C 219.827,124.592 217.16,122.425 219.5,114.5C 220.77,113.712 221.77,112.712 222.5,111.5 Z"/></g>
<g><path style="opacity:1" fill="#3e174d" d="M 252.5,111.5 C 259.628,111.706 261.294,114.873 257.5,121C 252.987,123.72 249.987,122.72 248.5,118C 249.205,115.458 250.539,113.292 252.5,111.5 Z"/></g>
<g><path style="opacity:0.037" fill="#211629" d="M 4.5,122.5 C 4.79472,124.735 4.46138,126.735 3.5,128.5C 2.83895,126.444 3.17228,124.444 4.5,122.5 Z"/></g>
<g><path style="opacity:1" fill="#c864ef" d="M 165.5,131.5 C 167.924,131.192 170.257,131.526 172.5,132.5C 170.867,135.96 169.034,139.294 167,142.5C 165.301,143.406 163.467,143.739 161.5,143.5C 162.633,139.433 163.967,135.433 165.5,131.5 Z"/></g>
<g><path style="opacity:0.028" fill="#201628" d="M 3.5,129.5 C 3.35407,133.387 2.6874,137.054 1.5,140.5C 1.25108,136.542 1.91774,132.876 3.5,129.5 Z"/></g>
<g><path style="opacity:1" fill="#33133e" d="M 210.5,121.5 C 212.083,126.144 215.417,128.644 220.5,129C 219.627,130.045 218.627,130.878 217.5,131.5C 215.518,131.005 213.518,130.505 211.5,130C 210.458,128.082 209.292,126.249 208,124.5C 201.829,130.338 195.996,136.505 190.5,143C 187.518,143.498 184.518,143.665 181.5,143.5C 181.232,141.901 181.566,140.568 182.5,139.5C 184.857,139.663 187.19,139.497 189.5,139C 196.122,133.22 201.788,126.72 206.5,119.5C 208.092,120.602 208.925,119.935 209,117.5C 209.21,119.058 209.71,120.391 210.5,121.5 Z"/></g>
<g><path style="opacity:1" fill="#33113f" d="M 267.5,117.5 C 268.629,119.628 268.796,121.961 268,124.5C 264.167,129 260.333,133.5 256.5,138C 253.734,140.468 250.568,142.301 247,143.5C 243.737,144.068 242.237,142.734 242.5,139.5C 244.857,139.663 247.19,139.497 249.5,139C 254,134.5 258.5,130 263,125.5C 265.157,123.183 266.657,120.516 267.5,117.5 Z"/></g>
<g><path style="opacity:1" fill="#3b1748" d="M 162.5,113.5 C 163.586,113.62 164.253,114.287 164.5,115.5C 163.336,119.173 161.169,122.173 158,124.5C 157.667,125.833 157.333,127.167 157,128.5C 151.628,134.374 145.794,139.707 139.5,144.5C 136.5,144.5 133.5,144.5 130.5,144.5C 130.5,142.833 130.5,141.167 130.5,139.5C 133.85,139.665 137.183,139.498 140.5,139C 148.417,130.923 155.75,122.423 162.5,113.5 Z"/></g>
<g><path style="opacity:0.029" fill="#201628" d="M 1.5,140.5 C 1.79472,142.735 1.46138,144.735 0.5,146.5C 0.67158,145.508 0.338246,144.842 -0.5,144.5C -0.5,144.167 -0.5,143.833 -0.5,143.5C 0.166667,142.5 0.833333,141.5 1.5,140.5 Z"/></g>
<g><path style="opacity:1" fill="#351342" d="M 240.5,115.5 C 239.45,123.28 242.783,127.78 250.5,129C 249.619,129.708 248.953,130.542 248.5,131.5C 245.383,131.358 242.883,130.024 241,127.5C 240.667,127.833 240.333,128.167 240,128.5C 238.667,123.167 237.333,123.167 236,128.5C 230.446,132.721 225.612,137.554 221.5,143C 218.97,144.422 216.303,144.755 213.5,144C 211.963,142.89 211.297,141.39 211.5,139.5C 211.833,139.5 212.167,139.5 212.5,139.5C 214.857,139.663 217.19,139.497 219.5,139C 223.667,134.833 227.833,130.667 232,126.5C 234.619,123.594 236.453,120.261 237.5,116.5C 238.222,116.082 238.722,115.416 239,114.5C 239.383,115.056 239.883,115.389 240.5,115.5 Z"/></g>
</svg>
