<?xml version="1.0" encoding="UTF-8"?>
<!DOCTYPE svg PUBLIC "-//W3C//DTD SVG 1.1//EN" "http://www.w3.org/Graphics/SVG/1.1/DTD/svg11.dtd">
<svg xmlns="http://www.w3.org/2000/svg" version="1.1" width="330px" height="159px" style="shape-rendering:geometricPrecision; text-rendering:geometricPrecision; image-rendering:optimizeQuality; fill-rule:evenodd; clip-rule:evenodd" xmlns:xlink="http://www.w3.org/1999/xlink">
<g><path style="opacity:0.997" fill="#fc4846" d="M -0.5,157.5 C -0.5,153.833 -0.5,150.167 -0.5,146.5C 8.18413,99.4001 16.3508,52.0668 24,4.5C 27.4022,3.21086 31.0688,2.54419 35,2.5C 38.5,2.83333 42,3.16667 45.5,3.5C 36.7694,54.1115 28.2694,104.778 20,155.5C 13.4515,157.438 6.61821,158.105 -0.5,157.5 Z"/></g>
<g><path style="opacity:1" fill="#231425" d="M 329.5,2.5 C 329.5,3.5 329.5,4.5 329.5,5.5C 320.843,56.4158 312.176,107.416 303.5,158.5C 202.167,158.5 100.833,158.5 -0.5,158.5C -0.5,158.167 -0.5,157.833 -0.5,157.5C 6.61821,158.105 13.4515,157.438 20,155.5C 28.2694,104.778 36.7694,54.1115 45.5,3.5C 42,3.16667 38.5,2.83333 35,2.5C 31.0688,2.54419 27.4022,3.21086 24,4.5C 16.3508,52.0668 8.18413,99.4001 -0.5,146.5C -0.5,143.167 -0.5,139.833 -0.5,136.5C 7.25869,91.71 15.2587,46.8767 23.5,2C 125.57,1.16919 227.57,1.33586 329.5,2.5 Z"/></g>
<g><path style="opacity:0.999" fill="#640405" d="M 72.5,2.5 C 157.5,2.5 242.5,2.5 327.5,2.5C 319.059,54.1479 310.725,105.815 302.5,157.5C 217.5,157.5 132.5,157.5 47.5,157.5C 55.7254,105.814 64.0587,54.1478 72.5,2.5 Z"/></g>
<g><path style="opacity:1" fill="#4b0405" d="M 156.5,52.5 C 156.626,50.7206 156.292,48.7206 155.5,46.5C 151.371,47.31 147.204,47.9766 143,48.5C 141.167,48.1667 139.333,47.8333 137.5,47.5C 137.167,46.8333 136.833,46.1667 136.5,45.5C 139.977,44.8328 143.311,44.1661 146.5,43.5C 156.978,38.9823 160.311,41.9823 156.5,52.5 Z"/></g>
<g><path style="opacity:1" fill="#490305" d="M 170.5,26.5 C 171.791,27.5417 171.791,28.7083 170.5,30C 164.564,31.1387 158.564,31.8054 152.5,32C 151.748,32.6708 151.414,33.5041 151.5,34.5C 150.176,35.8499 149.176,35.6833 148.5,34C 149.017,31.923 149.684,29.923 150.5,28C 157.346,27.8283 164.013,27.3283 170.5,26.5 Z"/></g>
<g><path style="opacity:1" fill="#f94644" d="M 277.5,54.5 C 275.964,60.0314 272.297,63.0314 266.5,63.5C 258.132,65.3292 253.132,62.1625 251.5,54C 252.331,49.8492 252.997,45.6825 253.5,41.5C 257.565,30.6281 265.231,27.1281 276.5,31C 279.876,33.0652 281.209,36.0652 280.5,40C 280.204,45.0114 279.204,49.8448 277.5,54.5 Z"/></g>
<g><path style="opacity:1" fill="#5d0305" d="M 266.5,35.5 C 268.467,35.2606 270.301,35.5939 272,36.5C 272.811,43.1141 271.811,49.4475 269,55.5C 264.494,58.8083 261.327,57.975 259.5,53C 260.206,49.1384 261.039,45.3051 262,41.5C 262.804,38.8541 264.304,36.8541 266.5,35.5 Z"/></g>
<g><path style="opacity:1" fill="#f94644" d="M 248.5,42.5 C 247.749,48.1871 246.082,53.5204 243.5,58.5C 240.493,62.3311 236.493,63.9978 231.5,63.5C 226.141,64.3251 222.474,62.3251 220.5,57.5C 219.837,51.4492 220.503,45.4492 222.5,39.5C 225.992,31.1441 232.326,27.9774 241.5,30C 247.822,31.8423 250.155,36.0089 248.5,42.5 Z"/></g>
<g><path style="opacity:1" fill="#5a0305" d="M 234.5,35.5 C 238.923,34.4249 240.923,36.0916 240.5,40.5C 240.282,45.9943 238.949,51.161 236.5,56C 231.698,58.8289 228.698,57.6623 227.5,52.5C 228.175,48.7989 229.009,45.1323 230,41.5C 230.804,38.8541 232.304,36.8541 234.5,35.5 Z"/></g>
<g><path style="opacity:1" fill="#f94644" d="M 216.5,41.5 C 215.916,47.508 214.249,53.1746 211.5,58.5C 208.493,62.3311 204.493,63.9978 199.5,63.5C 194.141,64.3251 190.474,62.3251 188.5,57.5C 187.631,55.283 187.298,52.9496 187.5,50.5C 188.585,44.1644 190.918,38.3311 194.5,33C 202.134,27.9247 209.301,28.4247 216,34.5C 216.497,36.8098 216.663,39.1432 216.5,41.5 Z"/></g>
<g><path style="opacity:1" fill="#65070a" d="M 208.5,43.5 C 207.956,47.6732 206.79,51.6732 205,55.5C 201.925,58.0594 198.925,58.0594 196,55.5C 195.326,51.8877 195.826,48.5544 197.5,45.5C 197.461,46.7562 197.961,47.7562 199,48.5C 199.797,45.7796 200.963,43.2796 202.5,41C 204.134,40.5065 205.801,40.3398 207.5,40.5C 207.263,41.791 207.596,42.791 208.5,43.5 Z"/></g>
<g><path style="opacity:1" fill="#4c0506" d="M 208.5,43.5 C 207.596,42.791 207.263,41.791 207.5,40.5C 205.801,40.3398 204.134,40.5065 202.5,41C 200.963,43.2796 199.797,45.7796 199,48.5C 197.961,47.7562 197.461,46.7562 197.5,45.5C 197.328,37.8217 200.828,34.8217 208,36.5C 208.497,38.8098 208.663,41.1432 208.5,43.5 Z"/></g>
<g><path style="opacity:1" fill="#f84543" d="M 149.5,18.5 C 156.841,18.3337 164.174,18.5003 171.5,19C 172.099,21.4957 171.765,23.9957 170.5,26.5C 164.013,27.3283 157.346,27.8283 150.5,28C 149.684,29.923 149.017,31.923 148.5,34C 149.176,35.6833 150.176,35.8499 151.5,34.5C 163.691,32.4722 169.524,37.4722 169,49.5C 167.843,53.822 165.676,57.4887 162.5,60.5C 155.546,64.4523 148.213,65.2856 140.5,63C 137.894,62.2082 135.894,60.7082 134.5,58.5C 130.493,49.998 133.16,47.1646 142.5,50C 144.326,55.2282 147.993,56.8948 153.5,55C 154.942,54.6232 155.942,53.7899 156.5,52.5C 160.311,41.9823 156.978,38.9823 146.5,43.5C 143.102,43.8204 139.768,43.487 136.5,42.5C 139.3,34.9321 141.8,27.2654 144,19.5C 145.699,18.5939 147.533,18.2606 149.5,18.5 Z"/></g>
<g><path style="opacity:1" fill="#690a0c" d="M 111.5,18.5 C 104.697,21.3068 100.363,26.3068 98.5,33.5C 101.5,33.5 104.5,33.5 107.5,33.5C 104.713,34.4767 101.713,34.81 98.5,34.5C 98.33,35.8221 98.6634,36.9887 99.5,38C 102.167,38.6667 104.833,38.6667 107.5,38C 109.411,35.4568 111.411,32.9568 113.5,30.5C 115.969,29.8319 118.302,29.1653 120.5,28.5C 121.709,30.4346 121.542,32.4346 120,34.5C 110.71,41.4548 101.71,48.7882 93,56.5C 91.7978,58.6775 91.2978,61.0108 91.5,63.5C 91.5106,65.0174 92.1772,66.1841 93.5,67C 104.495,67.4998 115.495,67.6665 126.5,67.5C 127.417,64.9952 127.417,62.6618 126.5,60.5C 127.15,58.5648 127.483,56.5648 127.5,54.5C 122.5,54.5 117.5,54.5 112.5,54.5C 119.733,51.2664 125.4,46.2664 129.5,39.5C 129.376,38.8933 129.043,38.56 128.5,38.5C 135.702,25.9052 132.035,18.9052 117.5,17.5C 117.5,15.8333 117.5,14.1667 117.5,12.5C 128.5,12.5 139.5,12.5 150.5,12.5C 150.167,14.5 149.833,16.5 149.5,18.5C 147.533,18.2606 145.699,18.5939 144,19.5C 141.8,27.2654 139.3,34.9321 136.5,42.5C 139.768,43.487 143.102,43.8204 146.5,43.5C 143.311,44.1661 139.977,44.8328 136.5,45.5C 136.833,46.1667 137.167,46.8333 137.5,47.5C 139.333,47.8333 141.167,48.1667 143,48.5C 147.204,47.9766 151.371,47.31 155.5,46.5C 156.292,48.7206 156.626,50.7206 156.5,52.5C 155.942,53.7899 154.942,54.6232 153.5,55C 147.993,56.8948 144.326,55.2282 142.5,50C 133.16,47.1646 130.493,49.998 134.5,58.5C 133.475,58.8966 133.308,59.5632 134,60.5C 135.707,62.0375 137.207,63.7041 138.5,65.5C 139.828,66.5072 140.828,67.8405 141.5,69.5C 139.012,81.4266 136.845,93.4266 135,105.5C 134.148,104.429 133.315,103.429 132.5,102.5C 128.815,95.2147 122.815,92.3814 114.5,94C 106.01,95.9911 100.677,101.158 98.5,109.5C 101.5,109.5 104.5,109.5 107.5,109.5C 104.642,110.166 101.642,110.833 98.5,111.5C 98.7093,112.086 99.0426,112.586 99.5,113C 102.833,113.667 106.167,113.667 109.5,113C 112.096,107.675 115.762,106.508 120.5,109.5C 118.706,111.797 116.706,113.963 114.5,116C 106.703,120.652 99.536,126.152 93,132.5C 91.9914,134.025 91.4914,135.692 91.5,137.5C 90.5184,140.962 90.185,144.629 90.5,148.5C 84.5,148.5 78.5,148.5 72.5,148.5C 79.7164,103.202 86.7164,57.8684 93.5,12.5C 99.5,12.5 105.5,12.5 111.5,12.5C 111.046,14.7411 111.046,16.7411 111.5,18.5 Z"/></g>
<g><path style="opacity:1" fill="#420405" d="M 128.5,38.5 C 129.043,38.56 129.376,38.8933 129.5,39.5C 125.4,46.2664 119.733,51.2664 112.5,54.5C 111.761,54.631 111.094,54.4643 110.5,54C 116.758,49.0521 122.758,43.8854 128.5,38.5 Z"/></g>
<g><path style="opacity:1" fill="#480506" d="M 120.5,28.5 C 118.302,29.1653 115.969,29.8319 113.5,30.5C 111.411,32.9568 109.411,35.4568 107.5,38C 104.833,38.6667 102.167,38.6667 99.5,38C 98.6634,36.9887 98.33,35.8221 98.5,34.5C 101.713,34.81 104.713,34.4767 107.5,33.5C 109.153,31.0392 111.153,28.8725 113.5,27C 115.5,26.3333 117.5,26.3333 119.5,27C 120.056,27.3826 120.389,27.8826 120.5,28.5 Z"/></g>
<g><path style="opacity:1" fill="#f94644" d="M 117.5,17.5 C 132.035,18.9052 135.702,25.9052 128.5,38.5C 122.758,43.8854 116.758,49.0521 110.5,54C 111.094,54.4643 111.761,54.631 112.5,54.5C 117.5,54.5 122.5,54.5 127.5,54.5C 127.483,56.5648 127.15,58.5648 126.5,60.5C 126.573,62.0269 125.906,63.0269 124.5,63.5C 114.167,63.5 103.833,63.5 93.5,63.5C 92.8333,63.5 92.1667,63.5 91.5,63.5C 91.2978,61.0108 91.7978,58.6775 93,56.5C 101.71,48.7882 110.71,41.4548 120,34.5C 121.542,32.4346 121.709,30.4346 120.5,28.5C 120.389,27.8826 120.056,27.3826 119.5,27C 117.5,26.3333 115.5,26.3333 113.5,27C 111.153,28.8725 109.153,31.0392 107.5,33.5C 104.5,33.5 101.5,33.5 98.5,33.5C 100.363,26.3068 104.697,21.3068 111.5,18.5C 113.5,18.1667 115.5,17.8333 117.5,17.5 Z"/></g>
<g><path style="opacity:1" fill="#6d0f10" d="M 78.5,12.5 C 82.5138,12.3345 86.5138,12.5012 90.5,13C 83.0001,58.1658 75.3334,103.332 67.5,148.5C 63.5,148.5 59.5,148.5 55.5,148.5C 63.3823,103.206 71.049,57.8729 78.5,12.5 Z"/></g>
<g><path style="opacity:1" fill="#fc4846" d="M 72.5,2.5 C 64.0587,54.1478 55.7254,105.814 47.5,157.5C 40.5,157.5 33.5,157.5 26.5,157.5C 34.9424,105.846 43.2757,54.179 51.5,2.5C 58.5,2.5 65.5,2.5 72.5,2.5 Z"/></g>
<g><path style="opacity:1" fill="#f14240" d="M 174.5,55.5 C 177.247,55.1866 179.914,55.52 182.5,56.5C 180.468,59.3681 178.635,62.3681 177,65.5C 175.116,67.5763 172.949,67.9097 170.5,66.5C 172.234,62.9628 173.568,59.2961 174.5,55.5 Z"/></g>
<g><path style="opacity:1" fill="#3a0303" d="M 134.5,58.5 C 135.894,60.7082 137.894,62.2082 140.5,63C 148.213,65.2856 155.546,64.4523 162.5,60.5C 163.043,60.56 163.376,60.8933 163.5,61.5C 155.907,67.7332 147.574,69.0666 138.5,65.5C 137.207,63.7041 135.707,62.0375 134,60.5C 133.308,59.5632 133.475,58.8966 134.5,58.5 Z"/></g>
<g><path style="opacity:1" fill="#5a0506" d="M 222.5,39.5 C 220.503,45.4492 219.837,51.4492 220.5,57.5C 219.427,58.2506 219.26,59.2506 220,60.5C 221.893,65.8676 225.726,68.2009 231.5,67.5C 236.444,67.6872 240.611,66.0205 244,62.5C 244.765,60.9343 244.598,59.6009 243.5,58.5C 246.082,53.5204 247.749,48.1871 248.5,42.5C 249.302,41.0484 249.802,39.3817 250,37.5C 250.36,39.6079 251.027,41.6079 252,43.5C 252.278,42.5842 252.778,41.9175 253.5,41.5C 252.997,45.6825 252.331,49.8492 251.5,54C 253.132,62.1625 258.132,65.3292 266.5,63.5C 263.579,64.1939 260.579,65.0272 257.5,66C 261.297,67.4239 265.297,67.9239 269.5,67.5C 265.689,68.6453 261.689,68.8119 257.5,68C 255.403,66.3896 253.07,65.2229 250.5,64.5C 250.023,63.069 249.357,61.7357 248.5,60.5C 242.404,69.4074 234.404,72.2407 224.5,69C 219.905,66.0754 217.405,61.9088 217,56.5C 212.543,67.9114 204.376,71.7447 192.5,68C 185.341,63.6511 183.674,57.8178 187.5,50.5C 187.298,52.9496 187.631,55.283 188.5,57.5C 187.428,59.9358 188.095,62.1025 190.5,64C 198.609,68.2013 205.776,67.0346 212,60.5C 212.692,59.5632 212.525,58.8966 211.5,58.5C 214.249,53.1746 215.916,47.508 216.5,41.5C 217.302,40.0484 217.802,38.3817 218,36.5C 218.471,38.2464 219.138,39.913 220,41.5C 220.915,40.6721 221.581,39.6721 222,38.5C 222.399,38.7284 222.565,39.0618 222.5,39.5 Z"/></g>
<g><path style="opacity:1" fill="#3e0304" d="M 188.5,57.5 C 190.474,62.3251 194.141,64.3251 199.5,63.5C 204.493,63.9978 208.493,62.3311 211.5,58.5C 212.525,58.8966 212.692,59.5632 212,60.5C 205.776,67.0346 198.609,68.2013 190.5,64C 188.095,62.1025 187.428,59.9358 188.5,57.5 Z"/></g>
<g><path style="opacity:1" fill="#440306" d="M 220.5,57.5 C 222.474,62.3251 226.141,64.3251 231.5,63.5C 236.493,63.9978 240.493,62.3311 243.5,58.5C 244.598,59.6009 244.765,60.9343 244,62.5C 240.611,66.0205 236.444,67.6872 231.5,67.5C 225.726,68.2009 221.893,65.8676 220,60.5C 219.26,59.2506 219.427,58.2506 220.5,57.5 Z"/></g>
<g><path style="opacity:1" fill="#4c0506" d="M 126.5,60.5 C 127.417,62.6618 127.417,64.9952 126.5,67.5C 115.495,67.6665 104.495,67.4998 93.5,67C 92.1772,66.1841 91.5106,65.0174 91.5,63.5C 92.1667,63.5 92.8333,63.5 93.5,63.5C 98.2876,64.8279 103.454,65.4946 109,65.5C 114.546,65.4946 119.712,64.8279 124.5,63.5C 125.906,63.0269 126.573,62.0269 126.5,60.5 Z"/></g>
<g><path style="opacity:1" fill="#320302" d="M 93.5,63.5 C 103.833,63.5 114.167,63.5 124.5,63.5C 119.712,64.8279 114.546,65.4946 109,65.5C 103.454,65.4946 98.2876,64.8279 93.5,63.5 Z"/></g>
<g><path style="opacity:1" fill="#430202" d="M 277.5,54.5 C 278.203,60.5651 275.537,64.8984 269.5,67.5C 265.297,67.9239 261.297,67.4239 257.5,66C 260.579,65.0272 263.579,64.1939 266.5,63.5C 272.297,63.0314 275.964,60.0314 277.5,54.5 Z"/></g>
<g><path style="opacity:1" fill="#f94644" d="M 132.5,102.5 C 132.553,107.007 131.22,111.007 128.5,114.5C 122.758,119.885 116.758,125.052 110.5,130C 112.134,130.494 113.801,130.66 115.5,130.5C 119.5,130.5 123.5,130.5 127.5,130.5C 127.483,132.565 127.15,134.565 126.5,136.5C 126.573,138.027 125.906,139.027 124.5,139.5C 113.833,139.5 103.167,139.5 92.5,139.5C 92.1667,139.5 91.8333,139.5 91.5,139.5C 91.5,138.833 91.5,138.167 91.5,137.5C 91.4914,135.692 91.9914,134.025 93,132.5C 99.536,126.152 106.703,120.652 114.5,116C 116.706,113.963 118.706,111.797 120.5,109.5C 122.523,105.268 121.19,102.935 116.5,102.5C 114.701,102.577 113.034,103.077 111.5,104C 110.303,106.015 108.97,107.849 107.5,109.5C 104.5,109.5 101.5,109.5 98.5,109.5C 100.677,101.158 106.01,95.9911 114.5,94C 122.815,92.3814 128.815,95.2147 132.5,102.5 Z"/></g>
<g><path style="opacity:1" fill="#fa4644" d="M 168.5,118.5 C 162.005,125.163 155.671,131.996 149.5,139C 146.518,139.498 143.518,139.665 140.5,139.5C 139.427,138.749 139.26,137.749 140,136.5C 143.833,132.667 147.667,128.833 151.5,125C 139.527,124.206 135.027,118.039 138,106.5C 145.582,94.2126 156.082,91.046 169.5,97C 174.938,104.364 174.605,111.53 168.5,118.5 Z"/></g>
<g><path style="opacity:1" fill="#4b0608" d="M 120.5,109.5 C 115.762,106.508 112.096,107.675 109.5,113C 106.167,113.667 102.833,113.667 99.5,113C 99.0426,112.586 98.7093,112.086 98.5,111.5C 101.642,110.833 104.642,110.166 107.5,109.5C 108.97,107.849 110.303,106.015 111.5,104C 113.034,103.077 114.701,102.577 116.5,102.5C 121.19,102.935 122.523,105.268 120.5,109.5 Z"/></g>
<g><path style="opacity:1" fill="#f94644" d="M 216.5,116.5 C 215.453,120.261 213.619,123.594 211,126.5C 206.833,130.667 202.667,134.833 198.5,139C 196.19,139.497 193.857,139.663 191.5,139.5C 193.158,135.328 195.825,131.828 199.5,129C 191.508,127.841 188.342,123.341 190,115.5C 194.226,106.97 201.059,103.803 210.5,106C 215.245,107.916 217.245,111.416 216.5,116.5 Z"/></g>
<g><path style="opacity:1" fill="#f94544" d="M 246.5,116.5 C 246.159,119.516 244.993,122.182 243,124.5C 238.167,129.333 233.333,134.167 228.5,139C 226.527,139.495 224.527,139.662 222.5,139.5C 221.475,139.103 221.308,138.437 222,137.5C 223.707,135.963 225.207,134.296 226.5,132.5C 227.29,131.206 228.29,130.039 229.5,129C 221.729,127.735 218.395,123.235 219.5,115.5C 225.426,105.472 233.759,102.972 244.5,108C 246.179,110.565 246.846,113.398 246.5,116.5 Z"/></g>
<g><path style="opacity:1" fill="#f84543" d="M 276.5,118.5 C 271.422,125.752 265.755,132.585 259.5,139C 257.527,139.495 255.527,139.662 253.5,139.5C 252.624,139.631 251.957,139.298 251.5,138.5C 253.19,136.481 254.856,134.481 256.5,132.5C 257.812,131.855 258.812,130.855 259.5,129.5C 251.083,127.657 248.083,122.657 250.5,114.5C 256.331,105.14 264.331,102.973 274.5,108C 277.542,111.041 278.208,114.541 276.5,118.5 Z"/></g>
<g><path style="opacity:1" fill="#4a0406" d="M 162.5,110.5 C 156.445,106.033 151.445,107.033 147.5,113.5C 148.02,104.14 152.687,100.973 161.5,104C 162.423,106.041 162.756,108.208 162.5,110.5 Z"/></g>
<g><path style="opacity:1" fill="#69080a" d="M 162.5,110.5 C 160.305,115.261 156.638,117.428 151.5,117C 149.676,116.34 148.343,115.173 147.5,113.5C 151.445,107.033 156.445,106.033 162.5,110.5 Z"/></g>
<g><path style="opacity:1" fill="#400202" d="M 238.5,118.5 C 237.709,116.557 236.209,115.557 234,115.5C 231.458,116.205 229.292,117.539 227.5,119.5C 227.63,115.202 229.796,112.535 234,111.5C 237.922,112.141 239.422,114.475 238.5,118.5 Z"/></g>
<g><path style="opacity:1" fill="#380202" d="M 268.5,114.5 C 265.218,114.981 262.051,115.981 259,117.5C 258.536,116.906 258.369,116.239 258.5,115.5C 261.609,110.871 264.942,110.538 268.5,114.5 Z"/></g>
<g><path style="opacity:1" fill="#450405" d="M 208.5,117.5 C 206.658,117.277 204.825,116.943 203,116.5C 200.971,117.55 199.137,118.884 197.5,120.5C 197.162,114.017 200.162,111.184 206.5,112C 208.155,113.444 208.822,115.278 208.5,117.5 Z"/></g>
<g><path style="opacity:1" fill="#5f0406" d="M 268.5,114.5 C 269.4,118.975 267.4,121.642 262.5,122.5C 257.808,121.938 256.474,119.604 258.5,115.5C 258.369,116.239 258.536,116.906 259,117.5C 262.051,115.981 265.218,114.981 268.5,114.5 Z"/></g>
<g><path style="opacity:1" fill="#650709" d="M 208.5,117.5 C 206.61,121.942 203.277,123.442 198.5,122C 197.944,121.617 197.611,121.117 197.5,120.5C 199.137,118.884 200.971,117.55 203,116.5C 204.825,116.943 206.658,117.277 208.5,117.5 Z"/></g>
<g><path style="opacity:1" fill="#4b0304" d="M 219.5,115.5 C 218.395,123.235 221.729,127.735 229.5,129C 228.29,130.039 227.29,131.206 226.5,132.5C 220.726,131.724 217.726,128.391 217.5,122.5C 211.619,129.759 205.619,136.926 199.5,144C 196.5,144.667 193.5,144.667 190.5,144C 189.424,142.274 189.257,140.441 190,138.5C 190.383,139.056 190.883,139.389 191.5,139.5C 193.857,139.663 196.19,139.497 198.5,139C 202.667,134.833 206.833,130.667 211,126.5C 213.619,123.594 215.453,120.261 216.5,116.5C 217.268,115.737 217.768,114.737 218,113.5C 218.717,114.044 219.217,114.711 219.5,115.5 Z"/></g>
<g><path style="opacity:1" fill="#610405" d="M 238.5,118.5 C 235.011,123.148 231.344,123.481 227.5,119.5C 229.292,117.539 231.458,116.205 234,115.5C 236.209,115.557 237.709,116.557 238.5,118.5 Z"/></g>
<g><path style="opacity:1" fill="#400405" d="M 128.5,114.5 C 129.043,114.56 129.376,114.893 129.5,115.5C 125.461,121.202 120.794,126.202 115.5,130.5C 113.801,130.66 112.134,130.494 110.5,130C 116.758,125.052 122.758,119.885 128.5,114.5 Z"/></g>
<g><path style="opacity:1" fill="#400203" d="M 276.5,118.5 C 277.659,121.253 277.159,123.919 275,126.5C 269.396,131.525 263.896,136.691 258.5,142C 255.738,143.077 254.072,142.244 253.5,139.5C 255.527,139.662 257.527,139.495 259.5,139C 265.755,132.585 271.422,125.752 276.5,118.5 Z"/></g>
<g><path style="opacity:1" fill="#f24241" d="M 174.5,131.5 C 176.833,131.5 179.167,131.5 181.5,131.5C 180.226,135.381 178.393,139.048 176,142.5C 174.186,143.76 172.353,143.76 170.5,142.5C 171.562,138.714 172.896,135.047 174.5,131.5 Z"/></g>
<g><path style="opacity:1" fill="#3d0303" d="M 168.5,118.5 C 169.239,118.369 169.906,118.536 170.5,119C 168.951,120.214 167.785,121.714 167,123.5C 161.206,128.997 155.706,134.83 150.5,141C 147.634,142.457 144.634,142.79 141.5,142C 140.748,141.329 140.414,140.496 140.5,139.5C 143.518,139.665 146.518,139.498 149.5,139C 155.671,131.996 162.005,125.163 168.5,118.5 Z"/></g>
<g><path style="opacity:1" fill="#4e0507" d="M 126.5,136.5 C 127.468,138.607 127.802,140.941 127.5,143.5C 116.162,143.667 104.828,143.5 93.5,143C 92.0267,142.29 91.3601,141.124 91.5,139.5C 91.8333,139.5 92.1667,139.5 92.5,139.5C 97.2876,140.828 102.454,141.495 108,141.5C 113.167,141.333 118.333,141.167 123.5,141C 124.056,140.617 124.389,140.117 124.5,139.5C 125.906,139.027 126.573,138.027 126.5,136.5 Z"/></g>
<g><path style="opacity:1" fill="#320202" d="M 92.5,139.5 C 103.167,139.5 113.833,139.5 124.5,139.5C 124.389,140.117 124.056,140.617 123.5,141C 118.333,141.167 113.167,141.333 108,141.5C 102.454,141.495 97.2876,140.828 92.5,139.5 Z"/></g>
<g><path style="opacity:1" fill="#490203" d="M 250.5,114.5 C 248.083,122.657 251.083,127.657 259.5,129.5C 258.812,130.855 257.812,131.855 256.5,132.5C 252.66,131.335 249.66,129.002 247.5,125.5C 246.5,126 245.5,126.5 244.5,127C 239.811,132.687 234.811,138.021 229.5,143C 227.19,143.497 224.857,143.663 222.5,143.5C 222.5,142.167 222.5,140.833 222.5,139.5C 224.527,139.662 226.527,139.495 228.5,139C 233.333,134.167 238.167,129.333 243,124.5C 244.993,122.182 246.159,119.516 246.5,116.5C 247.268,115.737 247.768,114.737 248,113.5C 248.671,114.252 249.504,114.586 250.5,114.5 Z"/></g>
</svg>
