<?xml version="1.0" encoding="UTF-8"?>
<!DOCTYPE svg PUBLIC "-//W3C//DTD SVG 1.1//EN" "http://www.w3.org/Graphics/SVG/1.1/DTD/svg11.dtd">
<svg xmlns="http://www.w3.org/2000/svg" version="1.1" width="330px" height="159px" style="shape-rendering:geometricPrecision; text-rendering:geometricPrecision; image-rendering:optimizeQuality; fill-rule:evenodd; clip-rule:evenodd" xmlns:xlink="http://www.w3.org/1999/xlink">
<g><path style="opacity:0.999" fill="#b0c4d5" d="M 3.5,139.5 C 3.44805,137.097 3.78138,134.764 4.5,132.5C 12.5175,89.4003 20.0175,46.067 27,2.5C 33.8853,0.558736 41.052,-0.107931 48.5,0.5C 39.9411,52.1867 31.2744,103.853 22.5,155.5C 15.5,155.5 8.5,155.5 1.5,155.5C 2.16667,150.167 2.83333,144.833 3.5,139.5 Z"/></g>
<g><path style="opacity:1" fill="#b0c5d6" d="M 61.5,0.5 C 61.8333,0.5 62.1667,0.5 62.5,0.5C 66.8333,0.5 71.1667,0.5 75.5,0.5C 66.8445,52.0999 58.5112,103.767 50.5,155.5C 48.8333,155.5 47.1667,155.5 45.5,155.5C 45.1667,155.5 44.8333,155.5 44.5,155.5C 39.5,155.5 34.5,155.5 29.5,155.5C 37.9435,103.839 46.2769,52.1725 54.5,0.5C 56.8333,0.5 59.1667,0.5 61.5,0.5 Z"/></g>
<g><path style="opacity:0.999" fill="#333f49" d="M 62.5,0.5 C 62.5,0.166667 62.5,-0.166667 62.5,-0.5C 91.8333,-0.5 121.167,-0.5 150.5,-0.5C 150.833,0.833333 151.167,0.833333 151.5,-0.5C 202.5,-0.5 253.5,-0.5 304.5,-0.5C 304.833,0.833333 305.167,0.833333 305.5,-0.5C 313.5,-0.5 321.5,-0.5 329.5,-0.5C 329.5,3.16667 329.5,6.83333 329.5,10.5C 327.097,19.9133 325.43,29.58 324.5,39.5C 324.675,41.6208 324.341,43.6208 323.5,45.5C 321.088,55.9204 319.421,66.5871 318.5,77.5C 317.596,85.3702 316.263,93.0369 314.5,100.5C 312.143,111.976 310.143,123.643 308.5,135.5C 308.5,136.167 308.5,136.833 308.5,137.5C 306.858,143.263 305.858,149.263 305.5,155.5C 257.167,155.5 208.833,155.5 160.5,155.5C 160.167,155.5 159.833,155.5 159.5,155.5C 123.167,155.5 86.8333,155.5 50.5,155.5C 58.5112,103.767 66.8445,52.0999 75.5,0.5C 71.1667,0.5 66.8333,0.5 62.5,0.5 Z"/></g>
<g><path style="opacity:1" fill="#3d4a53" d="M 81.5,10.5 C 85.5138,10.3345 89.5138,10.5012 93.5,11C 86.1081,55.8505 78.4415,100.684 70.5,145.5C 66.5546,146.491 62.5546,146.824 58.5,146.5C 66.3835,101.199 74.0502,55.8657 81.5,10.5 Z"/></g>
<g><path style="opacity:1" fill="#3c4650" d="M 113.5,20.5 C 109.909,31.5367 107.576,42.87 106.5,54.5C 106.167,54.5 105.833,54.5 105.5,54.5C 105.02,50.7564 104.354,50.923 103.5,55C 104.271,57.2711 105.271,59.4378 106.5,61.5C 101.623,89.763 97.2893,118.096 93.5,146.5C 87.4632,146.829 81.4632,146.496 75.5,145.5C 83.0408,100.588 90.0408,55.5881 96.5,10.5C 102.537,10.1707 108.537,10.5041 114.5,11.5C 113.593,14.4212 113.26,17.4212 113.5,20.5 Z"/></g>
<g><path style="opacity:1" fill="#3a4650" d="M 156.5,29.5 C 145.285,28.7046 139.285,34.0379 138.5,45.5C 137.579,43.466 136.579,41.966 135.5,41C 137.316,36.6589 137.816,32.1589 137,27.5C 136.722,28.4158 136.222,29.0825 135.5,29.5C 136.084,24.9079 134.084,22.0746 129.5,21C 126.183,20.5017 122.85,20.335 119.5,20.5C 120.207,17.2139 120.54,13.8806 120.5,10.5C 131.505,10.3335 142.505,10.5002 153.5,11C 152.019,16.7194 151.019,22.5527 150.5,28.5C 152.735,28.2053 154.735,28.5386 156.5,29.5 Z"/></g>
<g><path style="opacity:1" fill="#37434d" d="M 234.5,35.5 C 232.6,39.6326 230.433,43.6326 228,47.5C 227.406,41.8247 226.74,36.158 226,30.5C 224.506,29.2528 223.006,29.2528 221.5,30.5C 218.921,35.9918 216.088,41.3252 213,46.5C 211.719,40.9273 210.886,35.2606 210.5,29.5C 209.167,29.5 207.833,29.5 206.5,29.5C 206.5,30.5 206.5,31.5 206.5,32.5C 205.835,36.1515 205.501,39.9848 205.5,44C 205.393,48.6122 205.893,53.1122 207,57.5C 209.877,58.8302 212.711,58.6636 215.5,57C 217.335,54.1478 219.169,51.3145 221,48.5C 221.346,51.5755 222.012,54.5755 223,57.5C 224.896,58.6796 226.396,60.1796 227.5,62C 224.896,75.1261 222.562,88.2928 220.5,101.5C 218.918,99.0303 216.585,97.5303 213.5,97C 202.679,95.3186 196.012,99.8186 193.5,110.5C 192.883,110.611 192.383,110.944 192,111.5C 191.902,108.478 191.068,105.811 189.5,103.5C 185.384,96.8766 179.384,94.71 171.5,97C 165.996,99.84 162.829,104.34 162,110.5C 160.782,115.455 160.449,120.455 161,125.5C 162.406,127.744 164.239,129.41 166.5,130.5C 165.624,130.369 164.957,130.702 164.5,131.5C 165.246,132.736 165.579,134.07 165.5,135.5C 170.179,135.666 174.845,135.499 179.5,135C 183.008,131.825 186.175,128.325 189,124.5C 190.581,127.916 192.748,130.916 195.5,133.5C 195.611,134.117 195.944,134.617 196.5,135C 199,135.167 201.5,135.333 204,135.5C 207.569,135.714 210.902,135.047 214,133.5C 214.621,137.817 214.121,141.984 212.5,146C 188.502,146.5 164.502,146.667 140.5,146.5C 140.28,143.6 140.946,140.933 142.5,138.5C 144.5,139.833 146.5,139.833 148.5,138.5C 151.279,135.277 153.279,131.61 154.5,127.5C 154.457,126.584 154.124,125.917 153.5,125.5C 154.711,123.437 153.877,122.437 151,122.5C 148.297,122.12 146.463,123.12 145.5,125.5C 144.711,125.217 144.044,124.717 143.5,124C 147.54,102.596 151.206,81.0961 154.5,59.5C 156.535,57.2913 158.868,55.2913 161.5,53.5C 162.452,55.0453 162.785,56.712 162.5,58.5C 165.247,58.8134 167.914,58.48 170.5,57.5C 171.367,54.0158 172.534,50.6825 174,47.5C 175.412,58.4735 181.579,62.3068 192.5,59C 196.596,57.193 198.929,54.0263 199.5,49.5C 199.043,48.7025 198.376,48.3691 197.5,48.5C 204.286,33.1995 199.619,27.3661 183.5,31C 179.979,34.2251 177.646,38.0584 176.5,42.5C 176.279,39.9028 175.779,39.9028 175,42.5C 175.551,37.0241 176.384,31.5241 177.5,26C 177.333,25.1667 177.167,24.3333 177,23.5C 176.667,24.8333 176.333,26.1667 176,27.5C 175.617,26.944 175.117,26.6107 174.5,26.5C 174.833,24.5 175.167,22.5 175.5,20.5C 173.856,20.2865 172.356,20.6198 171,21.5C 170.25,26.076 169.083,30.4093 167.5,34.5C 166.034,35.347 165.2,36.6803 165,38.5C 164.066,37.1416 163.232,35.8083 162.5,34.5C 161.197,32.8577 159.864,31.1911 158.5,29.5C 159.117,29.3893 159.617,29.056 160,28.5C 160.795,22.553 161.962,16.7197 163.5,11C 187.498,10.5 211.498,10.3334 235.5,10.5C 234.214,19.2053 233.047,27.8719 232,36.5C 232.671,35.7476 233.504,35.4142 234.5,35.5 Z"/></g>
<g><path style="opacity:0.029" fill="#241929" d="M 329.5,10.5 C 329.5,12.8333 329.5,15.1667 329.5,17.5C 328.048,24.88 326.381,32.2133 324.5,39.5C 325.43,29.58 327.097,19.9133 329.5,10.5 Z"/></g>
<g><path style="opacity:1" fill="#aabece" d="M 174.5,26.5 C 172.561,35.133 170.727,43.7997 169,52.5C 167.951,54.1066 166.451,54.7733 164.5,54.5C 165.714,47.8821 166.714,41.2154 167.5,34.5C 169.083,30.4093 170.25,26.076 171,21.5C 172.356,20.6198 173.856,20.2865 175.5,20.5C 175.167,22.5 174.833,24.5 174.5,26.5 Z"/></g>
<g><path style="opacity:1" fill="#a9bdce" d="M 113.5,20.5 C 115.5,20.5 117.5,20.5 119.5,20.5C 122.85,20.335 126.183,20.5017 129.5,21C 134.084,22.0746 136.084,24.9079 135.5,29.5C 134.866,32.6433 133.2,35.1433 130.5,37C 134.813,43.116 133.813,48.4494 127.5,53C 120.615,54.4247 113.615,54.9247 106.5,54.5C 107.576,42.87 109.909,31.5367 113.5,20.5 Z"/></g>
<g><path style="opacity:1" fill="#283138" d="M 130.5,30.5 C 126.537,29.56 122.537,29.3933 118.5,30C 117.91,31.5095 117.244,33.0095 116.5,34.5C 115.702,34.0431 115.369,33.3764 115.5,32.5C 115.833,29.8333 116.167,27.1667 116.5,24.5C 120.514,24.3345 124.514,24.5012 128.5,25C 130.155,26.4443 130.822,28.2776 130.5,30.5 Z"/></g>
<g><path style="opacity:1" fill="#acc0d0" d="M 197.5,48.5 C 193.628,54.1469 188.295,55.9802 181.5,54C 177.093,51.4683 175.426,47.635 176.5,42.5C 177.646,38.0584 179.979,34.2251 183.5,31C 199.619,27.3661 204.286,33.1995 197.5,48.5 Z"/></g>
<g><path style="opacity:1" fill="#a8bccc" d="M 234.5,35.5 C 235.361,33.6137 236.361,31.7804 237.5,30C 238.944,29.2195 240.277,29.3861 241.5,30.5C 237.612,38.4427 233.612,46.276 229.5,54C 227.888,54.7203 226.388,54.5536 225,53.5C 224.461,48.0517 223.461,42.7184 222,37.5C 218.912,42.6748 216.079,48.0082 213.5,53.5C 211.955,54.4519 210.288,54.7852 208.5,54.5C 207.534,47.2038 206.867,39.8704 206.5,32.5C 206.5,31.5 206.5,30.5 206.5,29.5C 207.833,29.5 209.167,29.5 210.5,29.5C 210.886,35.2606 211.719,40.9273 213,46.5C 216.088,41.3252 218.921,35.9918 221.5,30.5C 223.006,29.2528 224.506,29.2528 226,30.5C 226.74,36.158 227.406,41.8247 228,47.5C 230.433,43.6326 232.6,39.6326 234.5,35.5 Z"/></g>
<g><path style="opacity:1" fill="#404c56" d="M 130.5,30.5 C 129.327,32.5041 127.66,34.0041 125.5,35C 121.848,35.4986 118.182,35.6653 114.5,35.5C 114.263,34.209 114.596,33.209 115.5,32.5C 115.369,33.3764 115.702,34.0431 116.5,34.5C 117.244,33.0095 117.91,31.5095 118.5,30C 122.537,29.3933 126.537,29.56 130.5,30.5 Z"/></g>
<g><path style="opacity:1" fill="#221725" d="M 26.5,-0.5 C 34.1667,-0.5 41.8333,-0.5 49.5,-0.5C 50.8333,0.833333 52.1667,0.833333 53.5,-0.5C 56.1667,-0.5 58.8333,-0.5 61.5,-0.5C 61.5,-0.166667 61.5,0.166667 61.5,0.5C 59.1667,0.5 56.8333,0.5 54.5,0.5C 46.2769,52.1725 37.9435,103.839 29.5,155.5C 34.5,155.5 39.5,155.5 44.5,155.5C 42.7103,156.997 40.5437,157.664 38,157.5C 26.2651,156.788 14.5984,156.788 3,157.5C 1.40088,156.929 0.234212,155.929 -0.5,154.5C -0.5,153.5 -0.5,152.5 -0.5,151.5C 0.215616,147.308 1.54895,143.308 3.5,139.5C 2.83333,144.833 2.16667,150.167 1.5,155.5C 8.5,155.5 15.5,155.5 22.5,155.5C 31.2744,103.853 39.9411,52.1867 48.5,0.5C 41.052,-0.107931 33.8853,0.558736 27,2.5C 20.0175,46.067 12.5175,89.4003 4.5,132.5C 4.46056,131.417 4.12723,130.417 3.5,129.5C 10.7413,86.0495 18.408,42.7162 26.5,-0.5 Z"/></g>
<g><path style="opacity:1" fill="#343f48" d="M 188.5,32.5 C 191.044,32.1043 193.211,32.771 195,34.5C 197.25,43.1521 194.25,48.8187 186,51.5C 184.289,51.5607 182.956,50.8941 182,49.5C 180.389,42.2062 182.556,36.5396 188.5,32.5 Z"/></g>
<g><path style="opacity:1" fill="#273037" d="M 127.5,45.5 C 123.802,43.494 119.802,42.994 115.5,44C 114.577,46.0408 114.244,48.2075 114.5,50.5C 113.5,50.5 112.5,50.5 111.5,50.5C 111.952,47.124 112.618,43.7906 113.5,40.5C 117.795,39.3391 122.129,39.1725 126.5,40C 128.553,41.6779 128.887,43.5112 127.5,45.5 Z"/></g>
<g><path style="opacity:1" fill="#39454f" d="M 127.5,45.5 C 127.084,47.7525 125.751,49.2525 123.5,50C 120.518,50.498 117.518,50.6646 114.5,50.5C 114.244,48.2075 114.577,46.0408 115.5,44C 119.802,42.994 123.802,43.494 127.5,45.5 Z"/></g>
<g><path style="opacity:1" fill="#2e3841" d="M 176.5,42.5 C 175.426,47.635 177.093,51.4683 181.5,54C 188.295,55.9802 193.628,54.1469 197.5,48.5C 198.376,48.3691 199.043,48.7025 199.5,49.5C 198.929,54.0263 196.596,57.193 192.5,59C 181.579,62.3068 175.412,58.4735 174,47.5C 172.534,50.6825 171.367,54.0158 170.5,57.5C 167.914,58.48 165.247,58.8134 162.5,58.5C 162.785,56.712 162.452,55.0453 161.5,53.5C 158.868,55.2913 156.535,57.2913 154.5,59.5C 151.57,60.299 148.57,60.6323 145.5,60.5C 145.5,59.5 145.5,58.5 145.5,57.5C 143.486,57.6085 141.82,56.9418 140.5,55.5C 137.821,55.4754 136.488,54.142 136.5,51.5C 134.692,51.4914 133.025,51.9914 131.5,53C 129.957,54.7137 128.29,56.2137 126.5,57.5C 121.779,58.1087 117.112,58.7753 112.5,59.5C 108.149,60.467 105.815,58.8004 105.5,54.5C 105.833,54.5 106.167,54.5 106.5,54.5C 113.615,54.9247 120.615,54.4247 127.5,53C 133.813,48.4494 134.813,43.116 130.5,37C 133.2,35.1433 134.866,32.6433 135.5,29.5C 136.222,29.0825 136.722,28.4158 137,27.5C 137.816,32.1589 137.316,36.6589 135.5,41C 136.579,41.966 137.579,43.466 138.5,45.5C 138.555,51.5555 141.555,54.5555 147.5,54.5C 151.883,54.6505 155.717,53.3171 159,50.5C 159.483,49.552 159.649,48.552 159.5,47.5C 155.941,48.5272 152.441,49.8606 149,51.5C 145.719,51.384 143.885,49.7174 143.5,46.5C 149.167,46.5 154.833,46.5 160.5,46.5C 160.5,45.5 160.5,44.5 160.5,43.5C 162.265,40.8774 162.932,37.8774 162.5,34.5C 163.232,35.8083 164.066,37.1416 165,38.5C 165.2,36.6803 166.034,35.347 167.5,34.5C 166.714,41.2154 165.714,47.8821 164.5,54.5C 166.451,54.7733 167.951,54.1066 169,52.5C 170.727,43.7997 172.561,35.133 174.5,26.5C 175.117,26.6107 175.617,26.944 176,27.5C 176.333,26.1667 176.667,24.8333 177,23.5C 177.167,24.3333 177.333,25.1667 177.5,26C 176.384,31.5241 175.551,37.0241 175,42.5C 175.779,39.9028 176.279,39.9028 176.5,42.5 Z"/></g>
<g><path style="opacity:1" fill="#1d252b" d="M 160.5,43.5 C 160.5,44.5 160.5,45.5 160.5,46.5C 154.833,46.5 149.167,46.5 143.5,46.5C 143.5,45.5 143.5,44.5 143.5,43.5C 149.167,43.5 154.833,43.5 160.5,43.5 Z"/></g>
<g><path style="opacity:1" fill="#aabfcf" d="M 156.5,29.5 C 157.167,29.5 157.833,29.5 158.5,29.5C 159.864,31.1911 161.197,32.8577 162.5,34.5C 162.932,37.8774 162.265,40.8774 160.5,43.5C 154.833,43.5 149.167,43.5 143.5,43.5C 143.5,44.5 143.5,45.5 143.5,46.5C 143.885,49.7174 145.719,51.384 149,51.5C 152.441,49.8606 155.941,48.5272 159.5,47.5C 159.649,48.552 159.483,49.552 159,50.5C 155.717,53.3171 151.883,54.6505 147.5,54.5C 141.555,54.5555 138.555,51.5555 138.5,45.5C 139.285,34.0379 145.285,28.7046 156.5,29.5 Z"/></g>
<g><path style="opacity:1" fill="#515e69" d="M 145.5,38.5 C 149.298,39.4834 153.298,39.8168 157.5,39.5C 153.317,40.8111 148.984,40.8111 144.5,39.5C 144.624,38.8933 144.957,38.56 145.5,38.5 Z"/></g>
<g><path style="opacity:1" fill="#252e36" d="M 157.5,39.5 C 153.298,39.8168 149.298,39.4834 145.5,38.5C 147.646,32.3694 151.48,31.036 157,34.5C 157.494,36.1341 157.66,37.8008 157.5,39.5 Z"/></g>
<g><path style="opacity:1" fill="#3a454f" d="M 140.5,55.5 C 141.983,57.8438 143.316,60.3438 144.5,63C 142.9,70.4291 141.9,77.9291 141.5,85.5C 133.493,85.3336 125.493,85.5003 117.5,86C 113.688,93.7304 111.021,101.897 109.5,110.5C 112.5,110.5 115.5,110.5 118.5,110.5C 115.642,111.166 112.642,111.833 109.5,112.5C 109.709,113.086 110.043,113.586 110.5,114C 112.333,114.167 114.167,114.333 116,114.5C 120.084,113.694 124.084,113.694 128,114.5C 129.041,113.529 129.874,112.529 130.5,111.5C 131.114,120.352 126.781,123.852 117.5,122C 116.139,120.416 115.472,118.582 115.5,116.5C 112.167,116.5 108.833,116.5 105.5,116.5C 105.5,118.167 105.5,119.833 105.5,121.5C 104.545,119.717 103.878,117.717 103.5,115.5C 106.935,96.8929 109.935,78.2262 112.5,59.5C 117.112,58.7753 121.779,58.1087 126.5,57.5C 128.29,56.2137 129.957,54.7137 131.5,53C 133.025,51.9914 134.692,51.4914 136.5,51.5C 136.488,54.142 137.821,55.4754 140.5,55.5 Z"/></g>
<g><path style="opacity:0.046" fill="#25192a" d="M 323.5,45.5 C 322.749,56.4374 321.082,67.1041 318.5,77.5C 319.421,66.5871 321.088,55.9204 323.5,45.5 Z"/></g>
<g><path style="opacity:1" fill="#aec2d3" d="M 141.5,85.5 C 142.5,85.5 143.5,85.5 144.5,85.5C 144.425,88.2062 144.092,90.8728 143.5,93.5C 136.825,93.3337 130.158,93.5004 123.5,94C 121.829,97.0022 120.996,100.169 121,103.5C 125.97,101.059 131.137,100.892 136.5,103C 140.493,105.819 142.16,109.653 141.5,114.5C 139.542,125.912 132.709,131.578 121,131.5C 118.449,131.375 115.949,131.042 113.5,130.5C 109.432,128.764 106.765,125.764 105.5,121.5C 105.5,119.833 105.5,118.167 105.5,116.5C 108.833,116.5 112.167,116.5 115.5,116.5C 115.472,118.582 116.139,120.416 117.5,122C 126.781,123.852 131.114,120.352 130.5,111.5C 126.958,107.832 122.958,107.499 118.5,110.5C 115.5,110.5 112.5,110.5 109.5,110.5C 111.021,101.897 113.688,93.7304 117.5,86C 125.493,85.5003 133.493,85.3336 141.5,85.5 Z"/></g>
<g><path style="opacity:1" fill="#aec3d3" d="M 189.5,103.5 C 189.234,111.229 187.401,118.562 184,125.5C 182.363,127.81 180.196,129.31 177.5,130C 173.848,130.499 170.182,130.665 166.5,130.5C 164.239,129.41 162.406,127.744 161,125.5C 160.449,120.455 160.782,115.455 162,110.5C 162.829,104.34 165.996,99.84 171.5,97C 179.384,94.71 185.384,96.8766 189.5,103.5 Z"/></g>
<g><path style="opacity:1" fill="#aec2d3" d="M 220.5,101.5 C 220.557,102.609 220.89,103.609 221.5,104.5C 221.074,111.871 219.241,118.871 216,125.5C 214.457,127.378 212.624,128.878 210.5,130C 194.55,132.631 188.883,126.131 193.5,110.5C 196.012,99.8186 202.679,95.3186 213.5,97C 216.585,97.5303 218.918,99.0303 220.5,101.5 Z"/></g>
<g><path style="opacity:1" fill="#adc2d2" d="M 248.5,124.5 C 246.996,126.836 244.996,128.669 242.5,130C 226.918,132.918 221.251,126.751 225.5,111.5C 228.995,97.7522 237.329,93.5856 250.5,99C 252.682,101.019 253.682,103.519 253.5,106.5C 253.041,112.871 251.375,118.871 248.5,124.5 Z"/></g>
<g><path style="opacity:1" fill="#333f48" d="M 174.5,102.5 C 178.525,101.578 180.859,103.078 181.5,107C 180.92,111.979 179.754,116.812 178,121.5C 175.525,124.524 172.525,125.19 169,123.5C 167.566,115.565 169.4,108.565 174.5,102.5 Z"/></g>
<g><path style="opacity:1" fill="#333f48" d="M 206.5,102.5 C 210.198,101.68 212.531,103.013 213.5,106.5C 212.667,110.832 211.834,115.165 211,119.5C 209.013,124.272 205.68,125.605 201,123.5C 199.689,115.611 201.522,108.611 206.5,102.5 Z"/></g>
<g><path style="opacity:1" fill="#2f3a43" d="M 238.5,102.5 C 242.198,101.68 244.531,103.013 245.5,106.5C 244.667,110.832 243.834,115.165 243,119.5C 241.013,124.272 237.68,125.605 233,123.5C 231.878,115.652 233.711,108.652 238.5,102.5 Z"/></g>
<g><path style="opacity:1" fill="#262f36" d="M 130.5,111.5 C 129.874,112.529 129.041,113.529 128,114.5C 124.084,113.694 120.084,113.694 116,114.5C 114.167,114.333 112.333,114.167 110.5,114C 110.043,113.586 109.709,113.086 109.5,112.5C 112.642,111.833 115.642,111.166 118.5,110.5C 122.958,107.499 126.958,107.832 130.5,111.5 Z"/></g>
<g><path style="opacity:0.031" fill="#251a2a" d="M 314.5,100.5 C 313.669,112.492 311.669,124.158 308.5,135.5C 310.143,123.643 312.143,111.976 314.5,100.5 Z"/></g>
<g><path style="opacity:1" fill="#a6baca" d="M 153.5,125.5 C 151.844,128.139 150.178,130.805 148.5,133.5C 146.955,134.452 145.288,134.785 143.5,134.5C 143.756,131.402 144.422,128.402 145.5,125.5C 146.463,123.12 148.297,122.12 151,122.5C 153.877,122.437 154.711,123.437 153.5,125.5 Z"/></g>
<g><path style="opacity:1" fill="#2b353d" d="M 189.5,103.5 C 191.068,105.811 191.902,108.478 192,111.5C 192.383,110.944 192.883,110.611 193.5,110.5C 188.883,126.131 194.55,132.631 210.5,130C 212.624,128.878 214.457,127.378 216,125.5C 219.241,118.871 221.074,111.871 221.5,104.5C 223.011,106.476 223.844,108.809 224,111.5C 224.69,110.262 225.19,110.262 225.5,111.5C 221.251,126.751 226.918,132.918 242.5,130C 244.996,128.669 246.996,126.836 248.5,124.5C 250.646,124.696 250.812,125.696 249,127.5C 243.341,135.977 235.841,137.81 226.5,133C 224.789,130.411 222.955,127.911 221,125.5C 216.838,128.011 213.004,130.844 209.5,134C 204.78,134.717 200.114,134.55 195.5,133.5C 192.748,130.916 190.581,127.916 189,124.5C 186.175,128.325 183.008,131.825 179.5,135C 174.845,135.499 170.179,135.666 165.5,135.5C 165.579,134.07 165.246,132.736 164.5,131.5C 164.957,130.702 165.624,130.369 166.5,130.5C 170.182,130.665 173.848,130.499 177.5,130C 180.196,129.31 182.363,127.81 184,125.5C 187.401,118.562 189.234,111.229 189.5,103.5 Z"/></g>
<g><path style="opacity:1" fill="#273138" d="M 113.5,130.5 C 115.949,131.042 118.449,131.375 121,131.5C 132.709,131.578 139.542,125.912 141.5,114.5C 142.268,113.737 142.768,112.737 143,111.5C 144.252,118.02 143.086,124.02 139.5,129.5C 131.808,135.185 123.308,136.851 114,134.5C 111.329,132.982 111.162,131.648 113.5,130.5 Z"/></g>
<g><path style="opacity:0.03" fill="#251829" d="M 308.5,137.5 C 308.938,143.866 307.938,149.866 305.5,155.5C 305.858,149.263 306.858,143.263 308.5,137.5 Z"/></g>
<g><path style="opacity:0.044" fill="#201323" d="M 45.5,155.5 C 47.1667,155.5 48.8333,155.5 50.5,155.5C 86.8333,155.5 123.167,155.5 159.5,155.5C 158.003,156.306 156.336,156.972 154.5,157.5C 118.199,157.134 82.3659,157.134 47,157.5C 46.2828,156.956 45.7828,156.289 45.5,155.5 Z"/></g>
<g><path style="opacity:0.026" fill="#241426" d="M 160.5,155.5 C 208.833,155.5 257.167,155.5 305.5,155.5C 279.431,156.171 253.264,156.838 227,157.5C 205.204,157.721 183.037,157.054 160.5,155.5 Z"/></g>
</svg>
