<?xml version="1.0" encoding="UTF-8"?>
<!DOCTYPE svg PUBLIC "-//W3C//DTD SVG 1.1//EN" "http://www.w3.org/Graphics/SVG/1.1/DTD/svg11.dtd">
<svg xmlns="http://www.w3.org/2000/svg" version="1.1" width="330px" height="159px" style="shape-rendering:geometricPrecision; text-rendering:geometricPrecision; image-rendering:optimizeQuality; fill-rule:evenodd; clip-rule:evenodd" xmlns:xlink="http://www.w3.org/1999/xlink">
<g><path style="opacity:0.858" fill="#24182b" d="M 43.5,1.5 C 47.8333,0.166667 52.1667,0.166667 56.5,1.5C 55.0689,1.88066 54.2355,2.88066 54,4.5C 45.9413,55.1856 37.7746,105.852 29.5,156.5C 36.5,156.5 43.5,156.5 50.5,156.5C 73.1667,156.5 95.8333,156.5 118.5,156.5C 79.8333,157.833 41.1667,157.833 2.5,156.5C 9.16667,156.5 15.8333,156.5 22.5,156.5C 31.2744,104.853 39.9411,53.1867 48.5,1.5C 46.8333,1.5 45.1667,1.5 43.5,1.5 Z"/></g>
<g><path style="opacity:0.999" fill="#6bb5e0" d="M 43.5,1.5 C 45.1667,1.5 46.8333,1.5 48.5,1.5C 39.9411,53.1867 31.2744,104.853 22.5,156.5C 15.8333,156.5 9.16667,156.5 2.5,156.5C 1.83333,156.5 1.5,156.167 1.5,155.5C 3.07839,150.417 3.74506,145.084 3.5,139.5C 3.32198,135.878 3.98864,132.544 5.5,129.5C 7.13566,125.79 7.80233,121.79 7.5,117.5C 7.85686,111.359 8.85686,105.359 10.5,99.5C 12.1357,95.7905 12.8023,91.7905 12.5,87.5C 13.3725,79.387 14.7058,71.387 16.5,63.5C 18.1181,60.8291 18.7847,57.8291 18.5,54.5C 20.6244,36.7532 23.2911,19.0865 26.5,1.5C 32.1667,1.5 37.8333,1.5 43.5,1.5 Z"/></g>
<g><path style="opacity:1" fill="#6cb9e5" d="M 71.5,1.5 C 72.8333,1.5 74.1667,1.5 75.5,1.5C 66.8441,53.1024 58.5108,104.769 50.5,156.5C 43.5,156.5 36.5,156.5 29.5,156.5C 37.7746,105.852 45.9413,55.1856 54,4.5C 54.2355,2.88066 55.0689,1.88066 56.5,1.5C 61.5931,1.14804 66.5931,1.14804 71.5,1.5 Z"/></g>
<g><path style="opacity:1" fill="#194054" d="M 71.5,1.5 C 157.44,0.839013 243.44,0.50568 329.5,0.5C 329.5,4.16667 329.5,7.83333 329.5,11.5C 325.213,31.5547 321.88,51.888 319.5,72.5C 317.872,78.2676 316.872,84.2676 316.5,90.5C 311.989,112.233 308.322,134.233 305.5,156.5C 243.5,156.5 181.5,156.5 119.5,156.5C 119.167,156.5 118.833,156.5 118.5,156.5C 95.8333,156.5 73.1667,156.5 50.5,156.5C 58.5108,104.769 66.8441,53.1024 75.5,1.5C 74.1667,1.5 72.8333,1.5 71.5,1.5 Z"/></g>
<g><path style="opacity:1" fill="#274b5d" d="M 81.5,11.5 C 85.5,11.5 89.5,11.5 93.5,11.5C 86.0486,56.875 78.382,102.208 70.5,147.5C 66.5,147.5 62.5,147.5 58.5,147.5C 65.7401,102.059 73.4068,56.7254 81.5,11.5 Z"/></g>
<g><path style="opacity:1" fill="#23485b" d="M 115.5,19.5 C 113.507,27.1498 111.507,34.8165 109.5,42.5C 112.5,42.5 115.5,42.5 118.5,42.5C 115.642,43.166 112.642,43.8326 109.5,44.5C 109.709,45.086 110.043,45.586 110.5,46C 116.514,46.2399 122.514,46.2399 128.5,46C 129.085,47.3024 129.751,48.469 130.5,49.5C 127.366,54.1191 123.032,55.6191 117.5,54C 116.139,52.4157 115.472,50.5824 115.5,48.5C 112.167,48.5 108.833,48.5 105.5,48.5C 105.5,50.5 105.5,52.5 105.5,54.5C 104.876,54.9169 104.543,55.5836 104.5,56.5C 105.762,59.022 106.429,61.6887 106.5,64.5C 101.648,91.9548 97.3144,119.621 93.5,147.5C 87.5,147.5 81.5,147.5 75.5,147.5C 82.8725,102.226 89.8725,56.8925 96.5,11.5C 102.5,11.5 108.5,11.5 114.5,11.5C 114.277,13.3417 113.943,15.175 113.5,17C 113.684,18.3756 114.351,19.2089 115.5,19.5 Z"/></g>
<g><path style="opacity:1" fill="#234659" d="M 147.5,54.5 C 146.15,57.5721 144.817,60.5721 143.5,63.5C 143.649,62.448 143.483,61.448 143,60.5C 140.865,64.6553 141.032,68.6553 143.5,72.5C 142.165,79.8451 140.832,87.1785 139.5,94.5C 127.259,90.4116 117.759,93.7449 111,104.5C 109.801,107.726 109.301,111.059 109.5,114.5C 108.378,116.288 108.211,118.288 109,120.5C 110.748,122.135 111.915,124.135 112.5,126.5C 114.741,127.129 116.741,128.129 118.5,129.5C 116.372,132.13 114.039,134.63 111.5,137C 112.056,137.383 112.389,137.883 112.5,138.5C 111.5,138.5 110.5,138.5 109.5,138.5C 109.286,140.144 109.62,141.644 110.5,143C 114.833,143.667 119.167,143.667 123.5,143C 126.384,139.414 129.717,136.748 133.5,135C 132.296,138.716 131.462,142.55 131,146.5C 120.228,147.819 109.395,147.819 98.5,146.5C 102.843,120.107 107.51,93.7736 112.5,67.5C 126.474,71.5776 136.641,67.2442 143,54.5C 143.667,50.5 143.667,46.5 143,42.5C 142.79,44.0581 142.29,45.3915 141.5,46.5C 141.48,37.648 136.98,33.3147 128,33.5C 125.329,33.2742 122.996,33.9409 121,35.5C 120.595,33.2251 121.095,31.2251 122.5,29.5C 122.435,29.9382 122.601,30.2716 123,30.5C 129.753,29.686 136.586,29.186 143.5,29C 144.801,27.3845 144.801,25.8845 143.5,24.5C 144.219,22.2362 144.552,19.9029 144.5,17.5C 136.5,17.5 128.5,17.5 120.5,17.5C 120.5,15.5 120.5,13.5 120.5,11.5C 131.5,11.5 142.5,11.5 153.5,11.5C 151.277,25.174 148.943,38.8406 146.5,52.5C 146.543,53.4164 146.876,54.0831 147.5,54.5 Z"/></g>
<g><path style="opacity:1" fill="#1e4558" d="M 232.5,30.5 C 228.861,34.1102 226.528,38.4436 225.5,43.5C 223.73,41.4976 222.397,39.1643 221.5,36.5C 220.676,33.6848 219.009,31.5182 216.5,30C 203.973,26.2625 196.306,30.7625 193.5,43.5C 193.279,40.9028 192.779,40.9028 192,43.5C 191.61,40.8958 190.776,38.5625 189.5,36.5C 185.88,28.9197 179.88,26.4197 171.5,29C 169.34,30.332 167.34,31.832 165.5,33.5C 164.671,32.6676 163.838,33.001 163,34.5C 162,36.5 161,38.5 160,40.5C 159.833,39.5 159.667,38.5 159.5,37.5C 161.052,28.8564 162.385,20.1897 163.5,11.5C 187.502,11.3334 211.502,11.5 235.5,12C 233.91,18.0389 232.91,24.2056 232.5,30.5 Z"/></g>
<g><path style="opacity:1" fill="#6bb7e2" d="M 120.5,17.5 C 128.5,17.5 136.5,17.5 144.5,17.5C 144.552,19.9029 144.219,22.2362 143.5,24.5C 137.013,25.3283 130.346,25.8283 123.5,26C 122.663,27.0113 122.33,28.1779 122.5,29.5C 121.095,31.2251 120.595,33.2251 121,35.5C 122.996,33.9409 125.329,33.2742 128,33.5C 136.98,33.3147 141.48,37.648 141.5,46.5C 141.233,48.9653 140.566,51.2986 139.5,53.5C 135.46,60.4792 129.294,63.8125 121,63.5C 113.702,63.9411 108.535,60.9411 105.5,54.5C 105.5,52.5 105.5,50.5 105.5,48.5C 108.833,48.5 112.167,48.5 115.5,48.5C 115.472,50.5824 116.139,52.4157 117.5,54C 123.032,55.6191 127.366,54.1191 130.5,49.5C 132.033,42.2024 129.033,39.3691 121.5,41C 120.473,41.5133 119.473,42.0133 118.5,42.5C 115.5,42.5 112.5,42.5 109.5,42.5C 111.507,34.8165 113.507,27.1498 115.5,19.5C 116.82,18.0582 118.486,17.3915 120.5,17.5 Z"/></g>
<g><path style="opacity:1" fill="#1a3746" d="M 143.5,24.5 C 144.801,25.8845 144.801,27.3845 143.5,29C 136.586,29.186 129.753,29.686 123,30.5C 122.601,30.2716 122.435,29.9382 122.5,29.5C 122.33,28.1779 122.663,27.0113 123.5,26C 130.346,25.8283 137.013,25.3283 143.5,24.5 Z"/></g>
<g><path style="opacity:1" fill="#6ab7e2" d="M 189.5,36.5 C 189.08,43.5114 187.414,50.178 184.5,56.5C 181.666,61.0661 177.499,63.0661 172,62.5C 166.26,63.0561 162.427,60.7228 160.5,55.5C 160.113,47.6691 161.78,40.3357 165.5,33.5C 167.34,31.832 169.34,30.332 171.5,29C 179.88,26.4197 185.88,28.9197 189.5,36.5 Z"/></g>
<g><path style="opacity:1" fill="#6ab7e2" d="M 221.5,36.5 C 221.08,43.5114 219.414,50.178 216.5,56.5C 214.996,58.8356 212.996,60.669 210.5,62C 206.5,62.6667 202.5,62.6667 198.5,62C 196.934,61.3918 195.6,60.5585 194.5,59.5C 192.187,54.4134 191.854,49.0801 193.5,43.5C 196.306,30.7625 203.973,26.2625 216.5,30C 219.009,31.5182 220.676,33.6848 221.5,36.5 Z"/></g>
<g><path style="opacity:1" fill="#6ab6e1" d="M 248.5,56.5 C 245.878,61.1444 241.878,63.1444 236.5,62.5C 230.002,63.2692 226.002,60.6025 224.5,54.5C 224.423,50.7852 224.756,47.1185 225.5,43.5C 226.528,38.4436 228.861,34.1102 232.5,30.5C 249.024,24.9883 255.524,30.655 252,47.5C 251.119,50.6469 249.953,53.6469 248.5,56.5 Z"/></g>
<g><path style="opacity:0.034" fill="#21192c" d="M 329.5,11.5 C 329.5,13.8333 329.5,16.1667 329.5,18.5C 325.951,36.4592 322.618,54.4592 319.5,72.5C 321.88,51.888 325.213,31.5547 329.5,11.5 Z"/></g>
<g><path style="opacity:1" fill="#163a4d" d="M 238.5,34.5 C 242.198,33.6798 244.531,35.0131 245.5,38.5C 244.667,42.832 243.834,47.1654 243,51.5C 241.013,56.2718 237.68,57.6051 233,55.5C 231.878,47.652 233.711,40.652 238.5,34.5 Z"/></g>
<g><path style="opacity:1" fill="#1c4052" d="M 174.5,34.5 C 178.525,33.5776 180.859,35.0776 181.5,39C 180.92,43.9789 179.754,48.8122 178,53.5C 175.525,56.5236 172.525,57.1903 169,55.5C 167.566,47.5646 169.4,40.5646 174.5,34.5 Z"/></g>
<g><path style="opacity:1" fill="#1c4051" d="M 206.5,34.5 C 210.198,33.6798 212.531,35.0131 213.5,38.5C 212.667,42.832 211.834,47.1654 211,51.5C 209.013,56.2718 205.68,57.6051 201,55.5C 199.689,47.6115 201.522,40.6115 206.5,34.5 Z"/></g>
<g><path style="opacity:1" fill="#15313f" d="M 130.5,49.5 C 129.751,48.469 129.085,47.3024 128.5,46C 122.514,46.2399 116.514,46.2399 110.5,46C 110.043,45.586 109.709,45.086 109.5,44.5C 112.642,43.8326 115.642,43.166 118.5,42.5C 119.473,42.0133 120.473,41.5133 121.5,41C 129.033,39.3691 132.033,42.2024 130.5,49.5 Z"/></g>
<g><path style="opacity:1" fill="#66b1da" d="M 147.5,54.5 C 149.924,54.1924 152.257,54.5258 154.5,55.5C 152.5,58.8333 150.5,62.1667 148.5,65.5C 146.955,66.4519 145.288,66.7852 143.5,66.5C 143.5,65.5 143.5,64.5 143.5,63.5C 144.817,60.5721 146.15,57.5721 147.5,54.5 Z"/></g>
<g><path style="opacity:1" fill="#1e4558" d="M 217.5,107.5 C 206.177,101.5 197.51,104.167 191.5,115.5C 191.011,114.005 190.345,112.671 189.5,111.5C 188.723,108.888 187.056,107.055 184.5,106C 174.017,102.58 166.35,105.747 161.5,115.5C 157.244,122.347 158.244,128.014 164.5,132.5C 158.107,143.499 161.107,146.999 173.5,143C 178.76,137.74 183.927,132.573 189,127.5C 191.453,128.979 193.619,130.812 195.5,133C 191.632,135.162 190.132,138.328 191,142.5C 195.323,144.996 199.823,145.162 204.5,143C 207.297,139.201 210.464,135.701 214,132.5C 213.728,137.482 213.228,142.482 212.5,147.5C 191.831,147.667 171.164,147.5 150.5,147C 151.005,143.33 152.338,139.663 154.5,136C 154.164,134.97 153.497,134.47 152.5,134.5C 153.141,133.518 153.807,132.518 154.5,131.5C 151.232,130.064 148.232,130.397 145.5,132.5C 144.909,131.849 144.243,131.182 143.5,130.5C 144.758,125.977 145.425,121.643 145.5,117.5C 145.5,117.167 145.5,116.833 145.5,116.5C 147.088,115.359 148.421,113.859 149.5,112C 148.76,108.094 148.594,103.927 149,99.5C 150.775,89.1838 152.442,78.8504 154,68.5C 154.438,65.624 155.438,62.9573 157,60.5C 159.557,66.5961 164.224,69.5961 171,69.5C 178.596,69.1221 184.43,65.7888 188.5,59.5C 190.9,64.3948 194.733,67.7282 200,69.5C 202.478,68.5533 204.812,68.5533 207,69.5C 209.058,68.7709 210.891,67.7709 212.5,66.5C 213.11,65.609 213.443,64.609 213.5,63.5C 216.1,62.0812 218.6,60.4146 221,58.5C 222.357,61.984 223.857,65.3173 225.5,68.5C 223.781,81.8488 221.114,94.8488 217.5,107.5 Z"/></g>
<g><path style="opacity:0.251" fill="#424b66" d="M 18.5,54.5 C 18.7847,57.8291 18.1181,60.8291 16.5,63.5C 16.4203,60.2186 17.087,57.2186 18.5,54.5 Z"/></g>
<g><path style="opacity:1" fill="#102834" d="M 139.5,53.5 C 140.613,54.9464 140.78,56.6131 140,58.5C 134.452,64.8101 127.452,67.4768 119,66.5C 114.65,66.6705 110.483,66.0038 106.5,64.5C 106.429,61.6887 105.762,59.022 104.5,56.5C 104.543,55.5836 104.876,54.9169 105.5,54.5C 108.535,60.9411 113.702,63.9411 121,63.5C 129.294,63.8125 135.46,60.4792 139.5,53.5 Z"/></g>
<g><path style="opacity:1" fill="#132f3c" d="M 160.5,55.5 C 162.427,60.7228 166.26,63.0561 172,62.5C 177.499,63.0661 181.666,61.0661 184.5,56.5C 184.826,59.7078 183.493,62.5411 180.5,65C 174.43,67.1097 168.43,66.943 162.5,64.5C 159.756,61.7712 159.09,58.7712 160.5,55.5 Z"/></g>
<g><path style="opacity:1" fill="#153241" d="M 216.5,56.5 C 217.573,57.2506 217.74,58.2506 217,59.5C 215.624,60.7051 214.458,62.0384 213.5,63.5C 213.443,64.609 213.11,65.609 212.5,66.5C 207.871,67.481 203.204,67.6477 198.5,67C 194.472,65.5664 193.139,63.0664 194.5,59.5C 195.6,60.5585 196.934,61.3918 198.5,62C 202.5,62.6667 206.5,62.6667 210.5,62C 212.996,60.669 214.996,58.8356 216.5,56.5 Z"/></g>
<g><path style="opacity:1" fill="#133242" d="M 224.5,54.5 C 226.002,60.6025 230.002,63.2692 236.5,62.5C 241.878,63.1444 245.878,61.1444 248.5,56.5C 249.463,59.7722 248.463,62.6055 245.5,65C 239.762,67.6306 233.762,68.1306 227.5,66.5C 226.974,64.7697 225.974,63.4363 224.5,62.5C 223.2,59.6908 223.2,57.0241 224.5,54.5 Z"/></g>
<g><path style="opacity:0.026" fill="#21182a" d="M 319.5,72.5 C 319.344,78.7671 318.344,84.7671 316.5,90.5C 316.872,84.2676 317.872,78.2676 319.5,72.5 Z"/></g>
<g><path style="opacity:1" fill="#6bb8e3" d="M 139.5,94.5 C 145.858,99.6006 147.191,105.934 143.5,113.5C 137.115,122.392 129.782,130.559 121.5,138C 118.518,138.498 115.518,138.665 112.5,138.5C 112.389,137.883 112.056,137.383 111.5,137C 114.039,134.63 116.372,132.13 118.5,129.5C 119.96,127.537 121.627,125.704 123.5,124C 116.569,124.043 111.903,120.877 109.5,114.5C 109.301,111.059 109.801,107.726 111,104.5C 117.759,93.7449 127.259,90.4116 139.5,94.5 Z"/></g>
<g><path style="opacity:0.275" fill="#3a415a" d="M 12.5,87.5 C 12.8023,91.7905 12.1357,95.7905 10.5,99.5C 10.7167,95.2949 11.3833,91.2949 12.5,87.5 Z"/></g>
<g><path style="opacity:1" fill="#6ab6e1" d="M 189.5,111.5 C 189.412,116.013 187.912,120.013 185,123.5C 180.133,128.032 175.633,132.866 171.5,138C 169.527,138.495 167.527,138.662 165.5,138.5C 163.972,138.483 163.472,137.816 164,136.5C 166.833,133.667 169.667,130.833 172.5,128C 164.735,127.403 161.068,123.236 161.5,115.5C 166.35,105.747 174.017,102.58 184.5,106C 187.056,107.055 188.723,108.888 189.5,111.5 Z"/></g>
<g><path style="opacity:1" fill="#6ab5e0" d="M 217.5,107.5 C 219.704,110.603 220.037,113.937 218.5,117.5C 217.928,119.255 217.094,120.922 216,122.5C 211.051,127.571 206.217,132.738 201.5,138C 198.854,138.497 196.187,138.664 193.5,138.5C 195.091,135.569 197.091,132.902 199.5,130.5C 203.408,128.05 202.741,126.884 197.5,127C 192.959,124.572 190.959,120.739 191.5,115.5C 197.51,104.167 206.177,101.5 217.5,107.5 Z"/></g>
<g><path style="opacity:1" fill="#6ab6e1" d="M 247.5,120.5 C 242.742,126.763 237.409,132.596 231.5,138C 229.19,138.497 226.857,138.663 224.5,138.5C 224.351,137.448 224.517,136.448 225,135.5C 226.707,133.963 228.207,132.296 229.5,130.5C 230.627,129.878 231.627,129.045 232.5,128C 227.431,127.649 224.098,125.149 222.5,120.5C 224.206,106.632 231.873,101.799 245.5,106C 250.016,110.269 250.683,115.103 247.5,120.5 Z"/></g>
<g><path style="opacity:1" fill="#1e3e4e" d="M 125.5,101.5 C 136.75,102.189 138.417,106.689 130.5,115C 121.351,117.851 118.184,114.684 121,105.5C 122.397,103.93 123.897,102.596 125.5,101.5 Z"/></g>
<g><path style="opacity:1" fill="#0f2732" d="M 180.5,113.5 C 180.631,114.239 180.464,114.906 180,115.5C 176.431,113.815 173.431,114.482 171,117.5C 170.536,116.906 170.369,116.239 170.5,115.5C 171.588,111.252 174.255,109.752 178.5,111C 179.381,111.708 180.047,112.542 180.5,113.5 Z"/></g>
<g><path style="opacity:1" fill="#123140" d="M 234.5,110.5 C 241.641,110.62 243.308,113.787 239.5,120C 232.063,123.591 229.229,121.424 231,113.5C 232.145,112.364 233.312,111.364 234.5,110.5 Z"/></g>
<g><path style="opacity:1" fill="#1d4153" d="M 180.5,113.5 C 181.457,116.47 180.457,118.97 177.5,121C 171.701,122.673 169.368,120.839 170.5,115.5C 170.369,116.239 170.536,116.906 171,117.5C 173.431,114.482 176.431,113.815 180,115.5C 180.464,114.906 180.631,114.239 180.5,113.5 Z"/></g>
<g><path style="opacity:1" fill="#14313f" d="M 189.5,111.5 C 190.345,112.671 191.011,114.005 191.5,115.5C 190.959,120.739 192.959,124.572 197.5,127C 202.741,126.884 203.408,128.05 199.5,130.5C 194.537,130.542 191.203,128.209 189.5,123.5C 184.042,129.459 178.376,135.292 172.5,141C 170.19,141.497 167.857,141.663 165.5,141.5C 165.5,140.5 165.5,139.5 165.5,138.5C 167.527,138.662 169.527,138.495 171.5,138C 175.633,132.866 180.133,128.032 185,123.5C 187.912,120.013 189.412,116.013 189.5,111.5 Z"/></g>
<g><path style="opacity:1" fill="#183848" d="M 204.5,110.5 C 210.995,110.145 212.828,112.812 210,118.5C 207.79,121.29 204.956,122.123 201.5,121C 198.776,116.577 199.776,113.077 204.5,110.5 Z"/></g>
<g><path style="opacity:1" fill="#183443" d="M 109.5,114.5 C 111.903,120.877 116.569,124.043 123.5,124C 121.627,125.704 119.96,127.537 118.5,129.5C 116.741,128.129 114.741,127.129 112.5,126.5C 111.915,124.135 110.748,122.135 109,120.5C 108.211,118.288 108.378,116.288 109.5,114.5 Z"/></g>
<g><path style="opacity:0.369" fill="#3a425a" d="M 7.5,117.5 C 7.80233,121.79 7.13566,125.79 5.5,129.5C 5.71667,125.295 6.38333,121.295 7.5,117.5 Z"/></g>
<g><path style="opacity:1" fill="#67b1db" d="M 152.5,134.5 C 151.055,137.118 149.389,139.618 147.5,142C 146.207,142.49 144.873,142.657 143.5,142.5C 143.959,139.123 144.626,135.789 145.5,132.5C 148.232,130.397 151.232,130.064 154.5,131.5C 153.807,132.518 153.141,133.518 152.5,134.5 Z"/></g>
<g><path style="opacity:1" fill="#112a37" d="M 143.5,113.5 C 145.048,113.821 145.715,114.821 145.5,116.5C 145.5,116.833 145.5,117.167 145.5,117.5C 136.81,124.353 128.81,132.187 121.5,141C 118.518,141.498 115.518,141.665 112.5,141.5C 112.5,140.5 112.5,139.5 112.5,138.5C 115.518,138.665 118.518,138.498 121.5,138C 129.782,130.559 137.115,122.392 143.5,113.5 Z"/></g>
<g><path style="opacity:1" fill="#12303f" d="M 218.5,117.5 C 219.5,117.5 220.5,117.5 221.5,117.5C 221.263,118.791 221.596,119.791 222.5,120.5C 224.098,125.149 227.431,127.649 232.5,128C 231.627,129.045 230.627,129.878 229.5,130.5C 225.38,130.44 222.047,128.773 219.5,125.5C 213.59,129.977 208.257,135.144 203.5,141C 200.312,142.316 196.978,142.816 193.5,142.5C 193.5,141.167 193.5,139.833 193.5,138.5C 196.187,138.664 198.854,138.497 201.5,138C 206.217,132.738 211.051,127.571 216,122.5C 217.094,120.922 217.928,119.255 218.5,117.5 Z"/></g>
<g><path style="opacity:1" fill="#113141" d="M 247.5,120.5 C 247.991,123.876 247.158,127.21 245,130.5C 240.611,134.412 236.444,138.412 232.5,142.5C 229.554,143.655 226.554,143.821 223.5,143C 222.424,141.274 222.257,139.441 223,137.5C 223.383,138.056 223.883,138.389 224.5,138.5C 226.857,138.663 229.19,138.497 231.5,138C 237.409,132.596 242.742,126.763 247.5,120.5 Z"/></g>
<g><path style="opacity:0.021" fill="#211628" d="M 316.5,90.5 C 314.718,105.451 312.385,120.284 309.5,135C 309.833,135.333 310.167,135.667 310.5,136C 309.5,139.667 308.5,143.333 307.5,147C 308.595,149.269 308.261,151.436 306.5,153.5C 306.709,154.086 307.043,154.586 307.5,155C 306.409,156.55 305.076,157.717 303.5,158.5C 303.167,158.5 302.833,158.5 302.5,158.5C 301.5,157.167 300.5,157.167 299.5,158.5C 299.167,158.5 298.833,158.5 298.5,158.5C 295.5,157.167 292.5,157.167 289.5,158.5C 289.167,158.5 288.833,158.5 288.5,158.5C 286.5,157.167 284.5,157.167 282.5,158.5C 282.167,158.5 281.833,158.5 281.5,158.5C 278.833,157.167 276.167,157.167 273.5,158.5C 272.833,158.5 272.167,158.5 271.5,158.5C 268.167,157.167 264.833,157.167 261.5,158.5C 261.167,158.5 260.833,158.5 260.5,158.5C 260.167,157.167 259.833,157.167 259.5,158.5C 259.167,158.5 258.833,158.5 258.5,158.5C 212.167,157.833 165.833,157.167 119.5,156.5C 181.5,156.5 243.5,156.5 305.5,156.5C 308.322,134.233 311.989,112.233 316.5,90.5 Z"/></g>
<g><path style="opacity:0.573" fill="#3a425b" d="M 3.5,139.5 C 3.74506,145.084 3.07839,150.417 1.5,155.5C 0.956913,155.44 0.62358,155.107 0.5,154.5C 1.26224,149.333 2.26224,144.333 3.5,139.5 Z"/></g>
</svg>
