<?xml version="1.0" encoding="UTF-8"?>
<!DOCTYPE svg PUBLIC "-//W3C//DTD SVG 1.1//EN" "http://www.w3.org/Graphics/SVG/1.1/DTD/svg11.dtd">
<svg xmlns="http://www.w3.org/2000/svg" version="1.1" width="330px" height="159px" style="shape-rendering:geometricPrecision; text-rendering:geometricPrecision; image-rendering:optimizeQuality; fill-rule:evenodd; clip-rule:evenodd" xmlns:xlink="http://www.w3.org/1999/xlink">
<g><path style="opacity:1" fill="#fad300" d="M 76.5,2.5 C 67.8421,54.114 59.5088,105.781 51.5,157.5C 44.5,157.5 37.5,157.5 30.5,157.5C 38.5083,105.783 46.8416,54.1167 55.5,2.5C 62.5,2.5 69.5,2.5 76.5,2.5 Z"/></g>
<g><path style="opacity:1" fill="#503600" d="M 329.5,1.5 C 329.5,7.16667 329.5,12.8333 329.5,18.5C 321.314,64.6194 313.647,110.953 306.5,157.5C 221.5,157.5 136.5,157.5 51.5,157.5C 59.5088,105.781 67.8421,54.114 76.5,2.5C 140.833,2.5 205.167,2.5 269.5,2.5C 289.352,1.52388 309.352,1.19055 329.5,1.5 Z"/></g>
<g><path style="opacity:1" fill="#5a4000" d="M 82.5,88.5 C 82.1667,89.1667 81.8333,89.8333 81.5,90.5C 77.9401,109.193 74.7734,128.193 72,147.5C 67.8821,148.798 63.7154,148.798 59.5,147.5C 66.8436,102.438 74.5103,57.438 82.5,12.5C 86.5,12.5 90.5,12.5 94.5,12.5C 89.6348,37.6914 85.6348,63.0247 82.5,88.5 Z"/></g>
<g><path style="opacity:1" fill="#583e00" d="M 108.5,56.5 C 102.409,56.2114 96.4093,56.5447 90.5,57.5C 93.1563,42.5614 95.4896,27.5614 97.5,12.5C 103.5,12.5 109.5,12.5 115.5,12.5C 113.381,27.2115 111.048,41.8782 108.5,56.5 Z"/></g>
<g><path style="opacity:1" fill="#583d00" d="M 151.5,56.5 C 142.354,54.9949 135.187,57.9949 130,65.5C 128.572,69.307 127.072,72.9736 125.5,76.5C 124.022,80.285 122.855,84.285 122,88.5C 121.76,86.1484 120.927,84.1484 119.5,82.5C 118.442,81.3998 117.608,80.0664 117,78.5C 115.348,77.6006 113.848,76.6006 112.5,75.5C 116.398,73.7746 119.564,71.108 122,67.5C 122.765,65.9343 122.598,64.6009 121.5,63.5C 122.219,61.2362 122.552,58.9029 122.5,56.5C 119.833,56.5 117.167,56.5 114.5,56.5C 117.265,41.9111 119.598,27.2444 121.5,12.5C 132.5,12.5 143.5,12.5 154.5,12.5C 152.059,26.8136 149.726,41.1469 147.5,55.5C 149.099,55.2322 150.432,55.5655 151.5,56.5 Z"/></g>
<g><path style="opacity:1" fill="#553a00" d="M 227.5,67.5 C 224.575,67.4598 221.909,68.2932 219.5,70C 216.837,72.8426 214.837,76.0093 213.5,79.5C 212.784,79.2169 211.951,78.8836 211,78.5C 210.667,77.5 210.333,76.5 210,75.5C 209.79,77.0581 209.29,78.3915 208.5,79.5C 209.204,75.1973 207.87,71.6973 204.5,69C 196.092,65.603 189.259,67.4363 184,74.5C 181.956,79.1271 180.456,83.7938 179.5,88.5C 178.167,92.1667 178.167,95.8333 179.5,99.5C 179.868,103.706 182.202,106.206 186.5,107C 192.343,108.324 197.676,107.324 202.5,104C 204.631,101.552 206.631,99.052 208.5,96.5C 209.905,99.2126 211.405,101.879 213,104.5C 215.707,105.437 218.207,106.77 220.5,108.5C 217.951,121.792 215.618,135.125 213.5,148.5C 189.491,148.833 165.491,148.5 141.5,147.5C 143.956,133.428 146.622,119.428 149.5,105.5C 155.886,102.941 160.053,98.2739 162,91.5C 164.787,83.3618 165.787,75.0284 165,66.5C 164.667,65.8333 164.333,65.1667 164,64.5C 163.601,64.7284 163.435,65.0618 163.5,65.5C 161.883,62.2157 159.55,59.5491 156.5,57.5C 159.471,42.6804 162.138,27.6804 164.5,12.5C 188.509,12.1669 212.509,12.5003 236.5,13.5C 233.068,31.4233 230.068,49.4233 227.5,67.5 Z"/></g>
<g><path style="opacity:1" fill="#1f1624" d="M 269.5,2.5 C 205.167,2.5 140.833,2.5 76.5,2.5C 69.5,2.5 62.5,2.5 55.5,2.5C 46.8416,54.1167 38.5083,105.783 30.5,157.5C 37.5,157.5 44.5,157.5 51.5,157.5C 136.5,157.5 221.5,157.5 306.5,157.5C 313.647,110.953 321.314,64.6194 329.5,18.5C 329.5,21.1667 329.5,23.8333 329.5,26.5C 321.244,72.6643 313.911,116.664 307.5,158.5C 214.833,158.5 122.167,158.5 29.5,158.5C 28.1667,157.167 26.8333,157.167 25.5,158.5C 17.5,158.5 9.5,158.5 1.5,158.5C 4.57128,133.071 8.40462,107.737 13,82.5C 17.3372,55.6032 22.1705,28.9366 27.5,2.5C 108.167,1.16667 188.833,1.16667 269.5,2.5 Z"/></g>
<g><path style="opacity:0.998" fill="#fad300" d="M 27.5,2.5 C 34.8333,2.5 42.1667,2.5 49.5,2.5C 41.002,53.488 32.502,104.488 24,155.5C 17.1147,157.441 9.94804,158.108 2.5,157.5C 10.9418,105.849 19.2751,54.1826 27.5,2.5 Z"/></g>
<g><path style="opacity:1" fill="#fad200" d="M 151.5,56.5 C 153.216,56.6287 154.883,56.962 156.5,57.5C 159.55,59.5491 161.883,62.2157 163.5,65.5C 162.91,75.1938 160.743,84.5271 157,93.5C 152.799,99.5142 146.966,102.181 139.5,101.5C 134.113,102.297 129.779,100.631 126.5,96.5C 125.013,93.7372 124.346,90.7372 124.5,87.5C 124.779,83.8201 125.112,80.1535 125.5,76.5C 127.072,72.9736 128.572,69.307 130,65.5C 135.187,57.9949 142.354,54.9949 151.5,56.5 Z"/></g>
<g><path style="opacity:1" fill="#f9d100" d="M 108.5,56.5 C 110.5,56.5 112.5,56.5 114.5,56.5C 117.167,56.5 119.833,56.5 122.5,56.5C 122.552,58.9029 122.219,61.2362 121.5,63.5C 117.361,67.468 113.027,71.3013 108.5,75C 109.793,75.49 111.127,75.6567 112.5,75.5C 113.848,76.6006 115.348,77.6006 117,78.5C 117.608,80.0664 118.442,81.3998 119.5,82.5C 119.511,86.4643 118.511,90.131 116.5,93.5C 112.999,98.091 108.333,100.924 102.5,102C 94.9427,103.925 88.6093,102.092 83.5,96.5C 82.2702,94.7028 81.6036,92.7028 81.5,90.5C 81.8333,89.8333 82.1667,89.1667 82.5,88.5C 85.5184,88.3354 88.5184,88.502 91.5,89C 92.7485,92.5812 95.2485,94.0812 99,93.5C 102.727,93.8851 105.56,92.5518 107.5,89.5C 108.511,87.5976 108.678,85.5976 108,83.5C 107.329,82.7476 106.496,82.4142 105.5,82.5C 102.038,81.5184 98.3714,81.185 94.5,81.5C 94.3398,79.8008 94.5065,78.1341 95,76.5C 98.9234,72.7978 103.09,69.4644 107.5,66.5C 108.043,66.44 108.376,66.1067 108.5,65.5C 102.537,64.5041 96.5368,64.1707 90.5,64.5C 90.5,62.1667 90.5,59.8333 90.5,57.5C 96.4093,56.5447 102.409,56.2114 108.5,56.5 Z"/></g>
<g><path style="opacity:1" fill="#9a7a00" d="M 90.5,64.5 C 96.5368,64.1707 102.537,64.5041 108.5,65.5C 108.376,66.1067 108.043,66.44 107.5,66.5C 101.833,65.8333 96.1667,65.1667 90.5,64.5 Z"/></g>
<g><path style="opacity:1" fill="#f9d100" d="M 208.5,79.5 C 207.764,85.7812 206.097,91.7812 203.5,97.5C 198.08,101.198 192.08,102.365 185.5,101C 180.436,98.3706 178.436,94.2039 179.5,88.5C 180.456,83.7938 181.956,79.1271 184,74.5C 189.259,67.4363 196.092,65.603 204.5,69C 207.87,71.6973 209.204,75.1973 208.5,79.5 Z"/></g>
<g><path style="opacity:1" fill="#f9d100" d="M 227.5,67.5 C 236.413,66.7509 240.746,70.7509 240.5,79.5C 240.073,86.7217 237.74,93.2217 233.5,99C 228.398,101.343 223.064,102.01 217.5,101C 215.34,100.004 213.673,98.5041 212.5,96.5C 211.602,90.8403 211.935,85.1736 213.5,79.5C 214.837,76.0093 216.837,72.8426 219.5,70C 221.909,68.2932 224.575,67.4598 227.5,67.5 Z"/></g>
<g><path style="opacity:1" fill="#f8d100" d="M 272.5,79.5 C 272.182,85.9545 270.349,91.9545 267,97.5C 260.972,101.686 254.472,102.519 247.5,100C 245.951,98.786 244.785,97.286 244,95.5C 243.731,90.1093 244.231,84.776 245.5,79.5C 249.533,68.488 257.2,64.988 268.5,69C 272.048,71.5907 273.382,75.0907 272.5,79.5 Z"/></g>
<g><path style="opacity:1" fill="#382601" d="M 121.5,63.5 C 122.598,64.6009 122.765,65.9343 122,67.5C 119.564,71.108 116.398,73.7746 112.5,75.5C 111.127,75.6567 109.793,75.49 108.5,75C 113.027,71.3013 117.361,67.468 121.5,63.5 Z"/></g>
<g><path style="opacity:1" fill="#4f3600" d="M 143.5,64.5 C 146.602,64.154 149.435,64.8207 152,66.5C 152.15,74.3954 150.817,82.0621 148,89.5C 145.045,93.2765 141.212,94.4432 136.5,93C 134.934,84.9693 135.768,77.136 139,69.5C 140.059,67.3408 141.559,65.6741 143.5,64.5 Z"/></g>
<g><path style="opacity:1" fill="#fbd300" d="M 284.5,92.5 C 284.5,91.5 284.5,90.5 284.5,89.5C 281.5,89.5 278.5,89.5 275.5,89.5C 275.5,87.8333 275.5,86.1667 275.5,84.5C 279.167,84.5 282.833,84.5 286.5,84.5C 286.616,81.1401 286.949,77.8067 287.5,74.5C 289.5,74.5 291.5,74.5 293.5,74.5C 292.833,77.8333 292.167,81.1667 291.5,84.5C 294.833,84.5 298.167,84.5 301.5,84.5C 301.714,86.1439 301.38,87.6439 300.5,89C 297.183,89.4983 293.85,89.665 290.5,89.5C 290.089,92.5534 289.423,95.5534 288.5,98.5C 286.955,99.4519 285.288,99.7852 283.5,99.5C 283.448,97.0971 283.781,94.7638 284.5,92.5 Z"/></g>
<g><path style="opacity:1" fill="#4d3401" d="M 225.5,73.5 C 230.192,72.4991 232.525,74.3325 232.5,79C 232.222,84.0589 231.055,88.8922 229,93.5C 224.44,96.8612 221.273,96.0279 219.5,91C 219.752,84.4556 221.752,78.6223 225.5,73.5 Z"/></g>
<g><path style="opacity:1" fill="#4a3101" d="M 257.5,73.5 C 262.192,72.4991 264.525,74.3325 264.5,79C 264.039,84.011 262.872,88.8443 261,93.5C 256.806,96.6971 253.639,96.0304 251.5,91.5C 251.672,84.7793 253.672,78.7793 257.5,73.5 Z"/></g>
<g><path style="opacity:1" fill="#503701" d="M 194.5,73.5 C 198.821,72.8244 200.821,74.6577 200.5,79C 200.302,84.3352 198.968,89.3352 196.5,94C 193.97,95.4217 191.303,95.755 188.5,95C 187.717,89.4869 188.217,83.9869 190,78.5C 191.059,76.3408 192.559,74.6741 194.5,73.5 Z"/></g>
<g><path style="opacity:1" fill="#452f02" d="M 149.5,105.5 C 143.118,106.719 136.785,106.385 130.5,104.5C 128.653,102.818 127.153,100.818 126,98.5C 125.308,97.5632 125.475,96.8966 126.5,96.5C 129.779,100.631 134.113,102.297 139.5,101.5C 146.966,102.181 152.799,99.5142 157,93.5C 160.743,84.5271 162.91,75.1938 163.5,65.5C 163.435,65.0618 163.601,64.7284 164,64.5C 164.333,65.1667 164.667,65.8333 165,66.5C 165.787,75.0284 164.787,83.3618 162,91.5C 160.053,98.2739 155.886,102.941 149.5,105.5 Z"/></g>
<g><path style="opacity:1" fill="#382601" d="M 105.5,82.5 C 106.496,82.4142 107.329,82.7476 108,83.5C 108.678,85.5976 108.511,87.5976 107.5,89.5C 104.342,86.081 100.342,84.581 95.5,85C 95.0426,84.586 94.7093,84.086 94.5,83.5C 98.1073,82.5108 101.774,82.1774 105.5,82.5 Z"/></g>
<g><path style="opacity:1" fill="#efc700" d="M 166.5,93.5 C 168.833,93.5 171.167,93.5 173.5,93.5C 172.309,96.8888 170.809,100.222 169,103.5C 167.211,105.229 165.044,105.896 162.5,105.5C 163.633,101.433 164.967,97.4331 166.5,93.5 Z"/></g>
<g><path style="opacity:1" fill="#573c00" d="M 130.5,104.5 C 132.54,105.942 134.873,106.942 137.5,107.5C 137.833,108.333 138.167,109.167 138.5,110C 136.119,122.785 134.119,135.619 132.5,148.5C 121.5,148.5 110.5,148.5 99.5,148.5C 101.63,134.05 104.297,119.717 107.5,105.5C 114.531,103.302 119.031,98.6352 121,91.5C 122.277,95.3235 123.943,98.9901 126,102.5C 127.33,103.582 128.83,104.249 130.5,104.5 Z"/></g>
<g><path style="opacity:1" fill="#3f2a01" d="M 245.5,79.5 C 244.231,84.776 243.731,90.1093 244,95.5C 244.785,97.286 245.951,98.786 247.5,100C 254.472,102.519 260.972,101.686 267,97.5C 270.349,91.9545 272.182,85.9545 272.5,79.5C 273.268,78.7375 273.768,77.7375 274,76.5C 274.175,81.0195 274.675,85.3528 275.5,89.5C 278.5,89.5 281.5,89.5 284.5,89.5C 284.5,90.5 284.5,91.5 284.5,92.5C 283.21,93.0577 282.377,94.0577 282,95.5C 278.982,94.9722 276.149,93.9722 273.5,92.5C 270.739,98.0944 266.739,102.594 261.5,106C 254.007,108.057 247.84,106.223 243,100.5C 242.012,97.5755 241.346,94.5755 241,91.5C 237.093,105.204 228.593,109.371 215.5,104C 212.543,101.97 211.543,99.4702 212.5,96.5C 213.673,98.5041 215.34,100.004 217.5,101C 223.064,102.01 228.398,101.343 233.5,99C 237.74,93.2217 240.073,86.7217 240.5,79.5C 241.268,78.7375 241.768,77.7375 242,76.5C 242.202,78.2556 242.702,79.9223 243.5,81.5C 244.182,80.7573 244.849,80.0906 245.5,79.5 Z"/></g>
<g><path style="opacity:1" fill="#3b2801" d="M 179.5,88.5 C 178.436,94.2039 180.436,98.3706 185.5,101C 192.08,102.365 198.08,101.198 203.5,97.5C 202.063,103.417 198.23,106.083 192,105.5C 186.459,106.057 182.293,104.057 179.5,99.5C 178.167,95.8333 178.167,92.1667 179.5,88.5 Z"/></g>
<g><path style="opacity:1" fill="#342300" d="M 116.5,93.5 C 117.043,93.56 117.376,93.8933 117.5,94.5C 116.218,96.1792 115.218,98.0126 114.5,100C 110.941,101.228 107.608,102.894 104.5,105C 99.8452,105.499 95.1785,105.666 90.5,105.5C 89.609,104.89 88.609,104.557 87.5,104.5C 86.2102,103.065 84.5435,102.065 82.5,101.5C 80.8269,99.2385 81.1602,97.5718 83.5,96.5C 88.6093,102.092 94.9427,103.925 102.5,102C 108.333,100.924 112.999,98.091 116.5,93.5 Z"/></g>
<g><path style="opacity:1" fill="#583e00" d="M 87.5,104.5 C 88.609,104.557 89.609,104.89 90.5,105.5C 93.6248,106.479 96.9581,106.813 100.5,106.5C 98.4066,120.487 96.4066,134.487 94.5,148.5C 88.5,148.5 82.5,148.5 76.5,148.5C 78.4128,133.356 81.0795,118.356 84.5,103.5C 85.4168,104.127 86.4168,104.461 87.5,104.5 Z"/></g>
</svg>
