<?xml version="1.0" encoding="UTF-8"?>
<!DOCTYPE svg PUBLIC "-//W3C//DTD SVG 1.1//EN" "http://www.w3.org/Graphics/SVG/1.1/DTD/svg11.dtd">
<svg xmlns="http://www.w3.org/2000/svg" version="1.1" width="330px" height="159px" style="shape-rendering:geometricPrecision; text-rendering:geometricPrecision; image-rendering:optimizeQuality; fill-rule:evenodd; clip-rule:evenodd" xmlns:xlink="http://www.w3.org/1999/xlink">
<g><path style="opacity:0.997" fill="#fa0cf0" d="M 26.5,0.5 C 33.8333,0.5 41.1667,0.5 48.5,0.5C 39.9409,52.1882 31.2742,103.855 22.5,155.5C 15.5,155.5 8.5,155.5 1.5,155.5C 2.5,148.167 3.5,140.833 4.5,133.5C 4.5,133.167 4.5,132.833 4.5,132.5C 7.68653,117.05 10.3532,101.384 12.5,85.5C 12.5,85.1667 12.5,84.8333 12.5,84.5C 18.2267,56.8063 22.8934,28.8063 26.5,0.5 Z"/></g>
<g><path style="opacity:1" fill="#fb0cf1" d="M 75.5,0.5 C 66.8441,52.1024 58.5108,103.769 50.5,155.5C 43.5,155.5 36.5,155.5 29.5,155.5C 37.5075,103.788 45.8408,52.1217 54.5,0.5C 61.5,0.5 68.5,0.5 75.5,0.5 Z"/></g>
<g><path style="opacity:1" fill="#68005f" d="M 75.5,0.5 C 160.167,0.5 244.833,0.5 329.5,0.5C 329.5,4.16667 329.5,7.83333 329.5,11.5C 320.872,59.2653 312.872,107.265 305.5,155.5C 220.5,155.5 135.5,155.5 50.5,155.5C 58.5108,103.769 66.8441,52.1024 75.5,0.5 Z"/></g>
<g><path style="opacity:1" fill="#700466" d="M 81.5,10.5 C 85.5,10.5 89.5,10.5 93.5,10.5C 86.002,55.488 78.502,100.488 71,145.5C 66.9341,146.464 62.7675,146.797 58.5,146.5C 65.7366,101.08 73.4033,55.7468 81.5,10.5 Z"/></g>
<g><path style="opacity:1" fill="#6e0264" d="M 114.5,16.5 C 107.697,19.3068 103.363,24.3068 101.5,31.5C 104.5,31.5 107.5,31.5 110.5,31.5C 107.713,32.4767 104.713,32.81 101.5,32.5C 101.33,33.8221 101.663,34.9887 102.5,36C 105.426,36.2178 108.26,36.7178 111,37.5C 113.061,35.1937 115.228,33.027 117.5,31C 118.793,30.51 120.127,30.3433 121.5,30.5C 121.5,31.5 121.5,32.5 121.5,33.5C 112.978,40.3619 104.478,47.3619 96,54.5C 94.7978,56.6775 94.2978,59.0108 94.5,61.5C 94.4142,62.4959 94.7476,63.3292 95.5,64C 106.167,64.6667 116.833,64.6667 127.5,64C 128.999,63.1618 129.332,62.3285 128.5,61.5C 129.634,58.6296 130.3,55.6296 130.5,52.5C 126.5,52.5 122.5,52.5 118.5,52.5C 123.084,47.5369 128.418,43.5369 134.5,40.5C 135.167,46.5 135.833,52.5 136.5,58.5C 137.183,58.8627 137.85,59.1961 138.5,59.5C 140.688,62.5427 142.355,65.876 143.5,69.5C 141.883,80.5358 140.05,91.5358 138,102.5C 137.781,101.062 137.281,99.7287 136.5,98.5C 135.893,98.6236 135.56,98.9569 135.5,99.5C 125.001,88.7114 114.501,89.0447 104,100.5C 102.589,102.65 101.755,104.984 101.5,107.5C 104.5,107.5 107.5,107.5 110.5,107.5C 107.713,108.477 104.713,108.81 101.5,108.5C 101.5,109.5 101.5,110.5 101.5,111.5C 108.221,113.054 113.221,110.888 116.5,105C 119.659,103.916 121.992,104.75 123.5,107.5C 121.706,109.797 119.706,111.963 117.5,114C 111.221,117.946 105.221,122.279 99.5,127C 96.7197,128.913 95.053,131.413 94.5,134.5C 94.6495,133.448 94.4828,132.448 94,131.5C 92.9363,132.944 92.4363,134.611 92.5,136.5C 93.0531,139.817 93.3865,143.15 93.5,146.5C 87.5,146.5 81.5,146.5 75.5,146.5C 82.872,101.23 89.872,55.8963 96.5,10.5C 102.5,10.5 108.5,10.5 114.5,10.5C 114.046,12.7411 114.046,14.7411 114.5,16.5 Z"/></g>
<g><path style="opacity:0.008" fill="#281329" d="M 26.5,0.5 C 22.8934,28.8063 18.2267,56.8063 12.5,84.5C 13.409,70.1677 15.7424,55.8344 19.5,41.5C 18.7769,39.8361 19.1103,38.1694 20.5,36.5C 20.1667,35.8333 19.8333,35.1667 19.5,34.5C 21.4198,22.9515 23.7532,11.6182 26.5,0.5 Z"/></g>
<g><path style="opacity:0.03" fill="#201222" d="M 12.5,85.5 C 10.3532,101.384 7.68653,117.05 4.5,132.5C 4.19607,131.85 3.86273,131.183 3.5,130.5C 5.88356,115.249 8.88356,100.249 12.5,85.5 Z"/></g>
<g><path style="opacity:0.273" fill="#201223" d="M 26.5,0.5 C 26.5,0.166667 26.5,-0.166667 26.5,-0.5C 127.5,-0.5 228.5,-0.5 329.5,-0.5C 329.5,-0.166667 329.5,0.166667 329.5,0.5C 244.833,0.5 160.167,0.5 75.5,0.5C 68.5,0.5 61.5,0.5 54.5,0.5C 45.8408,52.1217 37.5075,103.788 29.5,155.5C 36.5,155.5 43.5,155.5 50.5,155.5C 135.5,155.5 220.5,155.5 305.5,155.5C 312.872,107.265 320.872,59.2653 329.5,11.5C 329.5,15.8333 329.5,20.1667 329.5,24.5C 322.598,62.9547 316.098,101.621 310,140.5C 309.238,146.791 307.738,152.791 305.5,158.5C 204.5,158.5 103.5,158.5 2.5,158.5C 1.0051,156.669 0.338437,154.502 0.5,152C 1.05376,146.457 1.8871,140.957 3,135.5C 3.27842,134.584 3.77842,133.918 4.5,133.5C 3.5,140.833 2.5,148.167 1.5,155.5C 8.5,155.5 15.5,155.5 22.5,155.5C 31.2742,103.855 39.9409,52.1882 48.5,0.5C 41.1667,0.5 33.8333,0.5 26.5,0.5 Z"/></g>
<g><path style="opacity:1" fill="#500048" d="M 225.5,113.5 C 224.45,121.28 227.783,125.78 235.5,127C 234.29,128.039 233.29,129.206 232.5,130.5C 231.448,130.649 230.448,130.483 229.5,130C 227.032,127.512 224.699,125.012 222.5,122.5C 217.412,128.764 212.078,134.93 206.5,141C 203.833,141.667 201.167,141.667 198.5,141C 197.663,139.989 197.33,138.822 197.5,137.5C 199.857,137.663 202.19,137.497 204.5,137C 210.033,131.802 215.2,126.302 220,120.5C 221.411,118.35 222.245,116.016 222.5,113.5C 223.5,112.167 224.5,112.167 225.5,113.5 Z"/></g>
<g><path style="opacity:1" fill="#460040" d="M 255.5,114.5 C 255.031,121.703 258.364,126.037 265.5,127.5C 265.145,128.522 264.478,129.189 263.5,129.5C 262.127,129.657 260.793,129.49 259.5,129C 258.449,127.615 257.116,126.615 255.5,126C 254.91,124.491 254.244,122.991 253.5,121.5C 248.386,128.117 242.719,134.283 236.5,140C 233.518,140.498 230.518,140.665 227.5,140.5C 227.5,139.5 227.5,138.5 227.5,137.5C 229.857,137.663 232.19,137.497 234.5,137C 239,132.5 243.5,128 248,123.5C 250.571,121.024 252.071,118.024 252.5,114.5C 253.268,113.737 253.768,112.737 254,111.5C 254.232,112.737 254.732,113.737 255.5,114.5 Z"/></g>
<g><path style="opacity:1" fill="#33002e" d="M 96.5,137.5 C 107.167,137.5 117.833,137.5 128.5,137.5C 128.389,138.117 128.056,138.617 127.5,139C 117.5,139.667 107.5,139.667 97.5,139C 96.944,138.617 96.6107,138.117 96.5,137.5 Z"/></g>
<g><path style="opacity:1" fill="#480041" d="M 282.5,116.5 C 283.559,118.726 283.392,121.059 282,123.5C 277.172,129.328 272.005,134.828 266.5,140C 263.97,141.422 261.303,141.755 258.5,141C 257.663,139.989 257.33,138.822 257.5,137.5C 260.187,137.664 262.854,137.497 265.5,137C 271.755,130.585 277.422,123.752 282.5,116.5 Z"/></g>
<g><path style="opacity:1" fill="#45003f" d="M 135.5,128.5 C 142.5,128.5 149.5,128.5 156.5,128.5C 156.037,131.482 155.704,134.482 155.5,137.5C 158.5,137.5 161.5,137.5 164.5,137.5C 164.938,137.435 165.272,137.601 165.5,138C 162.467,141.94 158.967,142.44 155,139.5C 154.503,137.19 154.337,134.857 154.5,132.5C 148.491,132.666 142.491,132.499 136.5,132C 135.663,130.989 135.33,129.822 135.5,128.5 Z"/></g>
<g><path style="opacity:1" fill="#f10ae5" d="M 180.5,129.5 C 182.833,129.5 185.167,129.5 187.5,129.5C 186.226,133.381 184.393,137.048 182,140.5C 180.186,141.76 178.353,141.76 176.5,140.5C 177.562,136.714 178.896,133.047 180.5,129.5 Z"/></g>
<g><path style="opacity:1" fill="#470041" d="M 134.5,106.5 C 135.124,106.917 135.457,107.584 135.5,108.5C 134.67,110.828 133.837,113.162 133,115.5C 128.225,120.447 123.058,124.78 117.5,128.5C 116.127,128.657 114.793,128.49 113.5,128C 119.042,122.789 124.875,117.956 131,113.5C 132.705,111.423 133.872,109.09 134.5,106.5 Z"/></g>
<g><path style="opacity:1" fill="#460040" d="M 123.5,107.5 C 121.992,104.75 119.659,103.916 116.5,105C 113.221,110.888 108.221,113.054 101.5,111.5C 101.5,110.5 101.5,109.5 101.5,108.5C 104.713,108.81 107.713,108.477 110.5,107.5C 113.268,100.858 117.768,99.1912 124,102.5C 124.64,104.265 124.473,105.932 123.5,107.5 Z"/></g>
<g><path style="opacity:1" fill="#f80bed" d="M 282.5,116.5 C 277.422,123.752 271.755,130.585 265.5,137C 262.854,137.497 260.187,137.664 257.5,137.5C 259.091,134.569 261.091,131.902 263.5,129.5C 264.478,129.189 265.145,128.522 265.5,127.5C 258.364,126.037 255.031,121.703 255.5,114.5C 261.066,103.07 269.566,100.403 281,106.5C 283.634,109.505 284.134,112.838 282.5,116.5 Z"/></g>
<g><path style="opacity:1" fill="#56004e" d="M 267.5,109.5 C 276.237,110.212 277.57,113.712 271.5,120C 265.507,121.668 263.007,119.502 264,113.5C 265.376,112.295 266.542,110.962 267.5,109.5 Z"/></g>
<g><path style="opacity:1" fill="#f90bee" d="M 252.5,114.5 C 252.071,118.024 250.571,121.024 248,123.5C 243.5,128 239,132.5 234.5,137C 232.19,137.497 229.857,137.663 227.5,137.5C 228.754,134.907 230.42,132.573 232.5,130.5C 233.29,129.206 234.29,128.039 235.5,127C 227.783,125.78 224.45,121.28 225.5,113.5C 231.426,103.472 239.759,100.972 250.5,106C 252.179,108.565 252.846,111.398 252.5,114.5 Z"/></g>
<g><path style="opacity:1" fill="#580050" d="M 237.5,109.5 C 244.628,109.706 246.294,112.873 242.5,119C 237.987,121.72 234.987,120.72 233.5,116C 234.205,113.458 235.539,111.292 237.5,109.5 Z"/></g>
<g><path style="opacity:1" fill="#f90bee" d="M 222.5,113.5 C 222.245,116.016 221.411,118.35 220,120.5C 215.2,126.302 210.033,131.802 204.5,137C 202.19,137.497 199.857,137.663 197.5,137.5C 199.158,133.328 201.825,129.828 205.5,127C 197.508,125.841 194.342,121.341 196,113.5C 199.907,105.189 206.407,102.023 215.5,104C 220.368,105.36 222.701,108.526 222.5,113.5 Z"/></g>
<g><path style="opacity:1" fill="#5b0053" d="M 207.5,109.5 C 214.641,109.62 216.308,112.787 212.5,119C 204,122.5 201.5,120 205,111.5C 205.995,110.934 206.828,110.267 207.5,109.5 Z"/></g>
<g><path style="opacity:1" fill="#f80bee" d="M 164.5,137.5 C 161.5,137.5 158.5,137.5 155.5,137.5C 155.704,134.482 156.037,131.482 156.5,128.5C 149.5,128.5 142.5,128.5 135.5,128.5C 135.351,125.393 135.851,122.393 137,119.5C 145.845,110.955 154.345,102.121 162.5,93C 166.486,92.5012 170.486,92.3345 174.5,92.5C 172.448,101.427 170.781,110.427 169.5,119.5C 171.5,119.5 173.5,119.5 175.5,119.5C 176.691,126.817 173.691,129.817 166.5,128.5C 166.595,131.697 165.928,134.697 164.5,137.5 Z"/></g>
<g><path style="opacity:1" fill="#590051" d="M 161.5,104.5 C 162.043,104.56 162.376,104.893 162.5,105.5C 161.244,110.114 160.244,114.781 159.5,119.5C 155.818,119.665 152.152,119.499 148.5,119C 152.724,114.041 157.057,109.207 161.5,104.5 Z"/></g>
<g><path style="opacity:1" fill="#fa0bef" d="M 135.5,99.5 C 135.702,101.95 135.369,104.283 134.5,106.5C 133.872,109.09 132.705,111.423 131,113.5C 124.875,117.956 119.042,122.789 113.5,128C 114.793,128.49 116.127,128.657 117.5,128.5C 121.833,128.5 126.167,128.5 130.5,128.5C 130.3,131.63 129.634,134.63 128.5,137.5C 117.833,137.5 107.167,137.5 96.5,137.5C 94.9519,137.179 94.2852,136.179 94.5,134.5C 95.053,131.413 96.7197,128.913 99.5,127C 105.221,122.279 111.221,117.946 117.5,114C 119.706,111.963 121.706,109.797 123.5,107.5C 124.473,105.932 124.64,104.265 124,102.5C 117.768,99.1912 113.268,100.858 110.5,107.5C 107.5,107.5 104.5,107.5 101.5,107.5C 101.755,104.984 102.589,102.65 104,100.5C 114.501,89.0447 125.001,88.7114 135.5,99.5 Z"/></g>
<g><path style="opacity:1" fill="#53004b" d="M 254.5,37.5 C 255.843,42.4574 255.509,47.4574 253.5,52.5C 254.32,54.1112 255.654,54.7778 257.5,54.5C 258.965,60.0759 262.632,62.4092 268.5,61.5C 275.016,61.9128 279.683,59.2461 282.5,53.5C 283.573,54.2506 283.74,55.2506 283,56.5C 278.547,66.7767 271.047,69.9434 260.5,66C 259.271,64.4708 257.771,63.3041 256,62.5C 255.261,60.7795 254.427,59.1128 253.5,57.5C 247.683,65.3043 240.016,67.6376 230.5,64.5C 229.185,62.6841 227.685,61.0175 226,59.5C 225.308,58.5632 225.475,57.8966 226.5,57.5C 228.889,60.8935 232.223,62.2268 236.5,61.5C 243.496,61.9215 248.329,58.9215 251,52.5C 252.614,47.5928 253.781,42.5928 254.5,37.5 Z"/></g>
<g><path style="opacity:1" fill="#470041" d="M 219.5,50.5 C 221.034,57.9033 218.034,62.7367 210.5,65C 205.743,65.8098 201.076,65.4764 196.5,64C 193.698,62.269 193.031,60.1024 194.5,57.5C 195.343,59.1733 196.676,60.34 198.5,61C 205.564,62.7452 211.731,61.2452 217,56.5C 218.122,54.5932 218.955,52.5932 219.5,50.5 Z"/></g>
<g><path style="opacity:1" fill="#390033" d="M 94.5,61.5 C 105.833,61.5 117.167,61.5 128.5,61.5C 129.332,62.3285 128.999,63.1618 127.5,64C 116.833,64.6667 106.167,64.6667 95.5,64C 94.7476,63.3292 94.4142,62.4959 94.5,61.5 Z"/></g>
<g><path style="opacity:1" fill="#f30ae8" d="M 180.5,53.5 C 182.924,53.1924 185.257,53.5258 187.5,54.5C 185.667,57.5 183.833,60.5 182,63.5C 180.556,65.1554 178.722,65.822 176.5,65.5C 177.225,61.2516 178.559,57.2516 180.5,53.5 Z"/></g>
<g><path style="opacity:1" fill="#56004e" d="M 135.5,25.5 C 136.222,25.9175 136.722,26.5842 137,27.5C 137.78,32.0712 138.28,36.4045 138.5,40.5C 136.458,59.5924 144.792,66.0924 163.5,60C 168.231,57.0435 171.398,52.8769 173,47.5C 175.137,40.651 176.303,33.651 176.5,26.5C 178.907,36.5505 177.741,46.5505 173,56.5C 169.868,62.1728 165.034,65.3395 158.5,66C 154.5,66.6667 150.5,66.6667 146.5,66C 143.669,63.9993 141.003,61.8327 138.5,59.5C 137.85,59.1961 137.183,58.8627 136.5,58.5C 135.833,52.5 135.167,46.5 134.5,40.5C 128.418,43.5369 123.084,47.5369 118.5,52.5C 116.801,52.6602 115.134,52.4935 113.5,52C 119.042,46.7895 124.875,41.9562 131,37.5C 133.783,33.9846 135.283,29.9846 135.5,25.5 Z"/></g>
<g><path style="opacity:1" fill="#53004b" d="M 121.5,33.5 C 121.5,32.5 121.5,31.5 121.5,30.5C 120.127,30.3433 118.793,30.51 117.5,31C 115.228,33.027 113.061,35.1937 111,37.5C 108.26,36.7178 105.426,36.2178 102.5,36C 101.663,34.9887 101.33,33.8221 101.5,32.5C 104.713,32.81 107.713,32.4767 110.5,31.5C 112.601,25.9479 116.601,23.7812 122.5,25C 125.17,28.1615 124.837,30.9948 121.5,33.5 Z"/></g>
<g><path style="opacity:1" fill="#f90bee" d="M 282.5,53.5 C 279.683,59.2461 275.016,61.9128 268.5,61.5C 262.632,62.4092 258.965,60.0759 257.5,54.5C 257.149,47.0899 258.649,40.0899 262,33.5C 268.251,26.9893 275.418,25.8227 283.5,30C 286.097,33.0877 286.931,36.5877 286,40.5C 284.981,44.9116 283.814,49.2449 282.5,53.5 Z"/></g>
<g><path style="opacity:1" fill="#610058" d="M 271.5,33.5 C 275.841,32.52 278.174,34.1867 278.5,38.5C 277.647,43.245 276.48,47.9116 275,52.5C 272.525,55.5236 269.525,56.1903 266,54.5C 264.747,46.5646 266.58,39.5646 271.5,33.5 Z"/></g>
<g><path style="opacity:1" fill="#f90bee" d="M 254.5,37.5 C 253.781,42.5928 252.614,47.5928 251,52.5C 248.329,58.9215 243.496,61.9215 236.5,61.5C 232.223,62.2268 228.889,60.8935 226.5,57.5C 224.057,47.106 226.39,37.9393 233.5,30C 239.785,26.5464 245.952,26.7131 252,30.5C 253.411,32.6504 254.245,34.9837 254.5,37.5 Z"/></g>
<g><path style="opacity:1" fill="#5d0055" d="M 239.5,33.5 C 243.841,32.52 246.174,34.1867 246.5,38.5C 245.397,43.1805 244.23,47.8471 243,52.5C 240.525,55.5236 237.525,56.1903 234,54.5C 232.575,46.529 234.408,39.529 239.5,33.5 Z"/></g>
<g><path style="opacity:1" fill="#f80bed" d="M 219.5,50.5 C 218.955,52.5932 218.122,54.5932 217,56.5C 211.731,61.2452 205.564,62.7452 198.5,61C 196.676,60.34 195.343,59.1733 194.5,57.5C 192.591,49.1069 193.758,41.1069 198,33.5C 202.618,27.9473 208.451,26.114 215.5,28C 219.552,29.8871 221.885,33.0538 222.5,37.5C 221.647,41.9071 220.647,46.2405 219.5,50.5 Z"/></g>
<g><path style="opacity:1" fill="#65005b" d="M 207.5,33.5 C 211.525,32.5776 213.859,34.0776 214.5,38C 213.412,42.8517 212.245,47.685 211,52.5C 208.525,55.5236 205.525,56.1903 202,54.5C 200.707,46.5661 202.54,39.5661 207.5,33.5 Z"/></g>
<g><path style="opacity:1" fill="#fa0bef" d="M 176.5,26.5 C 176.303,33.651 175.137,40.651 173,47.5C 171.398,52.8769 168.231,57.0435 163.5,60C 144.792,66.0924 136.458,59.5924 138.5,40.5C 139.7,35.0732 141.534,29.7399 144,24.5C 151.234,16.4042 160.068,14.2375 170.5,18C 173.523,20.1775 175.523,23.0108 176.5,26.5 Z"/></g>
<g><path style="opacity:1" fill="#5e0055" d="M 156.5,24.5 C 159.685,24.0196 162.519,24.6863 165,26.5C 165.593,34.7998 164.26,42.7998 161,50.5C 158.005,53.2648 154.505,54.0981 150.5,53C 148.993,51.5267 148.326,49.6934 148.5,47.5C 148.675,38.8468 151.342,31.1801 156.5,24.5 Z"/></g>
<g><path style="opacity:1" fill="#f90bef" d="M 135.5,25.5 C 135.283,29.9846 133.783,33.9846 131,37.5C 124.875,41.9562 119.042,46.7895 113.5,52C 115.134,52.4935 116.801,52.6602 118.5,52.5C 122.5,52.5 126.5,52.5 130.5,52.5C 130.3,55.6296 129.634,58.6296 128.5,61.5C 117.167,61.5 105.833,61.5 94.5,61.5C 94.2978,59.0108 94.7978,56.6775 96,54.5C 104.478,47.3619 112.978,40.3619 121.5,33.5C 124.837,30.9948 125.17,28.1615 122.5,25C 116.601,23.7812 112.601,25.9479 110.5,31.5C 107.5,31.5 104.5,31.5 101.5,31.5C 103.363,24.3068 107.697,19.3068 114.5,16.5C 120.984,14.7116 126.984,15.7116 132.5,19.5C 134.038,21.2433 135.038,23.2433 135.5,25.5 Z"/></g>
</svg>
